<svg width="30" height="28" viewBox="0 0 30 28" fill="none" xmlns="http://www.w3.org/2000/svg">
<path d="M30.0001 3.81199C30.0001 11.1893 30.0001 18.5666 30.0001 25.9439C29.6159 27.1502 28.7739 27.4508 27.5988 27.4486C19.1439 27.432 10.689 27.4399 2.23488 27.4371C1.97306 27.4371 1.70272 27.4335 1.45175 27.3729C0.512918 27.1474 0.000898551 26.4642 0.000123938 25.4776C0.000123938 18.4023 0.000123938 11.3269 0.000123938 4.25086C0.000123938 4.18745 -0.000650675 4.12331 0.00167316 4.05989C0.0427277 3.05531 0.829735 2.32096 1.91032 2.28853C2.30073 2.27628 2.69113 2.28565 3.08154 2.28565C3.77327 2.28565 4.46422 2.28565 5.19236 2.28565C5.19236 2.40456 5.19236 2.50257 5.19236 2.59986C5.19236 3.45383 5.17299 4.3078 5.20243 5.16105C5.21405 5.49831 5.26517 5.8608 5.41545 6.16131C5.81824 6.96772 6.55103 7.31074 7.49761 7.30786C9.02747 7.30354 9.90123 6.5029 9.90123 5.0861C9.90123 4.25014 9.90123 3.41491 9.90123 2.57896C9.90123 2.48383 9.90123 2.3887 9.90123 2.29934C13.4017 2.29934 16.8542 2.29934 20.3345 2.29934C20.3345 2.41032 20.3345 2.50833 20.3345 2.60562C20.3345 3.46824 20.3283 4.33158 20.336 5.1942C20.3446 6.07267 20.7559 6.73639 21.6235 7.10608C22.2114 7.35687 22.8473 7.33308 23.4647 7.22283C24.5236 7.03401 25.0395 6.4366 25.0457 5.43201C25.0519 4.48724 25.0472 3.54247 25.0472 2.59841C25.0472 2.50041 25.0472 2.40312 25.0472 2.30223C26.1549 2.30223 27.227 2.29214 28.2991 2.31015C28.5136 2.31376 28.7367 2.40096 28.9366 2.48743C29.5416 2.75047 29.8398 3.23547 30.0001 3.81199ZM1.94208 25.6405C10.6642 25.6405 19.3585 25.6405 28.0597 25.6405C28.0597 20.2104 28.0597 14.7997 28.0597 9.37469C19.3484 9.37469 10.6534 9.37469 1.94208 9.37469C1.94208 14.799 1.94208 20.2097 1.94208 25.6405Z" fill="#E95A0C"/>
<path d="M6.1519 3.22056C6.1519 2.55756 6.14803 1.89528 6.15268 1.23228C6.15733 0.510194 6.63914 0.058346 7.41375 0.0540221C7.63606 0.0525808 7.86767 0.0540221 8.07992 0.10663C8.55708 0.225537 8.83826 0.531813 8.91727 0.987984C8.93741 1.10401 8.94439 1.22292 8.94439 1.34038C8.94593 2.60224 8.94206 3.8641 8.94748 5.12596C8.94903 5.61095 8.82355 6.04479 8.32237 6.26891C7.78479 6.5096 7.21777 6.51032 6.69413 6.22927C6.32232 6.02965 6.15423 5.69167 6.15345 5.29026C6.15113 4.6006 6.1519 3.91022 6.1519 3.22056Z" fill="#E95A0C"/>
<path d="M24.0863 3.21982C24.0863 3.88282 24.0894 4.5451 24.0855 5.2081C24.0808 5.93523 23.6099 6.37627 22.8267 6.37987C22.5851 6.38059 22.3325 6.37987 22.1048 6.31718C21.6563 6.19178 21.3952 5.88695 21.3224 5.45384C21.3031 5.33781 21.2969 5.21891 21.2961 5.10144C21.2945 3.83958 21.2992 2.57772 21.293 1.31587C21.2907 0.830147 21.4169 0.393433 21.9166 0.172914C22.451 -0.0620177 23.0204 -0.065621 23.5448 0.211829C23.9081 0.404243 24.0808 0.731418 24.0832 1.12345C24.087 1.82248 24.0839 2.52151 24.0839 3.22054C24.0855 3.21982 24.0863 3.21982 24.0863 3.21982Z" fill="#E95A0C"/>
<path d="M6.47 23.9206C5.94326 23.9206 5.41575 23.9227 4.88902 23.9199C4.56213 23.9177 4.49861 23.8579 4.49784 23.5487C4.49551 22.7135 4.49551 21.8783 4.49784 21.043C4.49861 20.736 4.56135 20.6769 4.89366 20.6755C5.93784 20.6726 6.98202 20.6726 8.0262 20.6755C8.3678 20.6762 8.4352 20.7418 8.43597 21.0611C8.43752 21.8869 8.43752 22.7135 8.43597 23.5394C8.4352 23.8543 8.36471 23.9184 8.02155 23.9199C7.50411 23.922 6.98667 23.9206 6.47 23.9206Z" fill="#E95A0C"/>
<path d="M12.0838 20.6748C12.6106 20.6748 13.1381 20.6719 13.6648 20.6755C13.9886 20.6777 14.0606 20.7469 14.0614 21.046C14.0637 21.8812 14.0637 22.7164 14.0614 23.5517C14.0606 23.8493 13.9863 23.9185 13.6625 23.9192C12.6082 23.9213 11.5548 23.9163 10.5005 23.9221C10.2255 23.9235 10.1179 23.8183 10.121 23.5625C10.1295 22.7186 10.1302 21.874 10.1202 21.0294C10.1171 20.7692 10.234 20.6691 10.5036 20.6719C11.0296 20.6791 11.5563 20.6748 12.0838 20.6748Z" fill="#E95A0C"/>
<path d="M17.6946 23.9203C17.1772 23.9203 16.6605 23.9225 16.1431 23.9196C15.8147 23.9175 15.7496 23.8576 15.7488 23.5514C15.7465 22.7161 15.7465 21.8809 15.7488 21.0457C15.7496 20.7379 15.8123 20.6767 16.1408 20.6753C17.195 20.6724 18.2485 20.6767 19.3027 20.6724C19.57 20.6716 19.6924 20.7697 19.6893 21.0298C19.6807 21.8737 19.6807 22.7183 19.6893 23.5629C19.6916 23.8202 19.5762 23.9247 19.3043 23.9218C18.7683 23.916 18.2314 23.9203 17.6946 23.9203Z" fill="#E95A0C"/>
<path d="M23.3396 23.9206C22.8129 23.9206 22.2854 23.9156 21.7586 23.9228C21.4891 23.9264 21.3698 23.8298 21.3721 23.5689C21.3814 22.7157 21.3799 21.8624 21.3729 21.0092C21.3713 20.7779 21.4759 20.6748 21.7191 20.6748C22.802 20.6762 23.8857 20.6755 24.9686 20.6755C25.2119 20.6755 25.3164 20.7851 25.3149 21.0142C25.3095 21.8675 25.3079 22.7207 25.3157 23.574C25.318 23.8377 25.184 23.9264 24.9198 23.9228C24.3931 23.9163 23.8664 23.9206 23.3396 23.9206Z" fill="#E95A0C"/>
<path d="M17.6951 11.5887C18.2319 11.5887 18.7679 11.5945 19.3047 11.5866C19.575 11.5822 19.6928 11.6802 19.6905 11.9404C19.6812 12.7843 19.6819 13.6282 19.6897 14.4728C19.692 14.7308 19.5766 14.8288 19.3039 14.8266C18.2404 14.8201 17.1776 14.8201 16.1141 14.8266C15.8523 14.828 15.7446 14.7286 15.7469 14.4857C15.7531 13.6325 15.7539 12.7792 15.7461 11.9267C15.7438 11.6802 15.8569 11.5844 16.1148 11.588C16.6416 11.5938 17.1683 11.5887 17.6951 11.5887Z" fill="#E95A0C"/>
<path d="M23.3505 14.8229C22.8137 14.8229 22.2776 14.8171 21.7408 14.825C21.4806 14.8286 21.3713 14.7306 21.3729 14.4856C21.3799 13.6324 21.3806 12.7791 21.3721 11.9266C21.3698 11.6801 21.479 11.585 21.7385 11.5864C22.802 11.5915 23.8648 11.5922 24.9284 11.5864C25.1979 11.585 25.3188 11.6772 25.3157 11.9388C25.3064 12.7827 25.3071 13.6266 25.3149 14.4712C25.3172 14.7285 25.2041 14.8315 24.9299 14.8265C24.4039 14.8164 23.8772 14.8229 23.3505 14.8229Z" fill="#E95A0C"/>
<path d="M6.46942 16.1317C7.00623 16.1317 7.54226 16.1353 8.07907 16.1302C8.32307 16.1274 8.43849 16.2225 8.43694 16.4538C8.43307 17.3157 8.43229 18.1783 8.43772 19.0402C8.43927 19.2723 8.32927 19.3681 8.08449 19.3674C7.00158 19.3645 5.91867 19.3638 4.83576 19.3674C4.58324 19.3681 4.49261 19.2564 4.49416 19.0316C4.49958 18.1783 4.50036 17.3251 4.49416 16.4725C4.49261 16.2319 4.59563 16.1252 4.85978 16.1295C5.39581 16.1374 5.93262 16.1317 6.46942 16.1317Z" fill="#E95A0C"/>
<path d="M12.0646 19.3661C11.5379 19.3661 11.0112 19.361 10.4844 19.3682C10.2226 19.3718 10.1188 19.2695 10.1211 19.0252C10.1289 18.172 10.1281 17.3187 10.1219 16.4662C10.1204 16.2197 10.2335 16.1275 10.4929 16.1289C11.5565 16.1347 12.6193 16.1354 13.6828 16.1289C13.9586 16.1275 14.0678 16.2327 14.0655 16.4871C14.0585 17.331 14.0577 18.1748 14.0662 19.0194C14.0686 19.2825 13.9431 19.3733 13.6751 19.369C13.1375 19.361 12.6007 19.3661 12.0646 19.3661Z" fill="#E95A0C"/>
<path d="M17.7113 16.1316C18.2481 16.1316 18.7841 16.1367 19.321 16.1295C19.582 16.1259 19.6904 16.2289 19.6889 16.4718C19.6827 17.325 19.6835 18.1783 19.6889 19.0308C19.6904 19.2571 19.5959 19.3674 19.3457 19.3666C18.2628 19.3638 17.1799 19.3638 16.097 19.3674C15.8515 19.3681 15.7446 19.2722 15.7461 19.0402C15.7523 18.1783 15.7515 17.3157 15.7469 16.4538C15.7453 16.2224 15.8561 16.1266 16.1017 16.1295C16.6385 16.136 17.1753 16.1316 17.7113 16.1316Z" fill="#E95A0C"/>
<path d="M23.3431 16.1314C23.8698 16.1314 24.3966 16.1379 24.9233 16.1286C25.1921 16.1242 25.3176 16.215 25.3153 16.4774C25.3075 17.3306 25.3091 18.1839 25.3145 19.0364C25.316 19.267 25.2107 19.3672 24.9651 19.3664C23.8822 19.3636 22.7993 19.3636 21.7164 19.3664C21.4902 19.3672 21.3725 19.2865 21.374 19.0616C21.3787 18.1903 21.3787 17.3191 21.374 16.4478C21.3725 16.2114 21.4926 16.1264 21.7335 16.1293C22.2695 16.1358 22.8063 16.1314 23.3431 16.1314Z" fill="#E95A0C"/>
</svg>
