<svg width="1358" height="167" viewBox="0 0 1358 167" fill="none" xmlns="http://www.w3.org/2000/svg">
<g style="mix-blend-mode:multiply" opacity="0.6">
<path d="M0 162.957L0 4.04297L52.7416 4.04297C62.9245 4.04297 72.8678 5.72016 82.6015 9.10448C92.3352 12.4589 101.23 17.3407 109.317 23.69C117.403 30.0394 123.902 38.4253 128.844 48.8179C133.786 59.2105 136.242 70.7711 136.242 83.4997C136.242 96.2284 133.786 107.789 128.844 118.182C123.902 128.574 117.403 136.96 109.317 143.309C101.23 149.659 92.3352 154.541 82.6015 157.895C72.8678 161.249 62.9245 162.957 52.7416 162.957L0 162.957ZM16.1729 18.4189L16.1729 148.611L48.2791 148.611C59.8097 148.611 70.1723 146.784 79.3669 143.1C88.5615 139.446 96.019 134.504 101.709 128.275C107.4 122.075 111.743 115.157 114.738 107.519C117.733 99.8823 119.23 91.8857 119.23 83.4997C119.23 75.1138 117.733 67.1172 114.738 59.48C111.743 51.8428 107.4 44.9244 101.709 38.7248C96.019 32.5252 88.5915 27.5835 79.3669 23.8997C70.1723 20.2458 59.8097 18.3889 48.2791 18.3889L16.1729 18.3889V18.4189Z" fill="#EEEEEE"/>
<path d="M449.129 4.04297V148.611L523.195 148.611V162.986L432.956 162.986V4.04297L449.129 4.04297Z" fill="#EEEEEE"/>
<path d="M619.275 121.207L601.994 162.957H584.264L652.939 4.04297L668.662 4.04297L736.888 162.957H718.918L701.397 121.207L619.275 121.207ZM660.366 21.9829L625.355 106.381L695.377 106.381L660.366 21.9829Z" fill="#EEEEEE"/>
<path d="M814.331 4.04297L865.964 142.082H866.413L918.047 4.04297L935.328 4.04297L874.5 162.957H857.428L796.84 4.04297L814.331 4.04297Z" fill="#EEEEEE"/>
<path d="M1063.73 18.4189V162.986H1047.55V18.4189L994.362 18.4189V4.04297L1116.92 4.04297V18.4189L1063.73 18.4189Z" fill="#EEEEEE"/>
<path d="M1333.96 23.6903C1349.68 39.4738 1357.53 59.4204 1357.53 83.5C1357.53 107.58 1349.68 127.526 1333.96 143.31C1318.24 159.093 1298.5 167 1274.69 167C1250.91 167 1231.14 159.123 1215.42 143.31C1199.7 127.526 1191.85 107.58 1191.85 83.5C1191.85 59.4204 1199.7 39.4738 1215.42 23.6903C1231.17 7.90674 1250.91 0 1274.72 0C1298.5 0 1318.27 7.90674 1333.96 23.6903ZM1322.4 132.558C1334.44 119.17 1340.46 102.818 1340.46 83.5C1340.46 64.1824 1334.44 47.7999 1322.4 34.3524C1310.36 20.875 1294.46 14.1363 1274.69 14.1363C1254.92 14.1363 1239.05 20.875 1226.98 34.3524C1214.94 47.8298 1208.92 64.2123 1208.92 83.5C1208.92 102.788 1214.94 119.14 1226.98 132.558C1239.02 145.945 1254.92 152.654 1274.69 152.654C1294.46 152.654 1310.36 145.945 1322.4 132.558Z" fill="#EEEEEE"/>
<path fill-rule="evenodd" clip-rule="evenodd" d="M346.789 23.2149L201.622 23.2149V9.9707L346.789 9.9707V23.2149Z" fill="#EEEEEE"/>
<path fill-rule="evenodd" clip-rule="evenodd" d="M346.79 88.8653L201.623 88.8653V75.6211L346.79 75.6211V88.8653Z" fill="#EEEEEE"/>
<path fill-rule="evenodd" clip-rule="evenodd" d="M346.79 156.791L201.623 156.791V143.547L346.79 143.547V156.791Z" fill="#EEEEEE"/>
</g>
</svg>
