<svg width="38" height="41" viewBox="0 0 38 41" fill="none" xmlns="http://www.w3.org/2000/svg">
<path d="M8.55406 13.9563C8.55406 13.5378 8.55406 13.2531 8.55406 12.9684C8.55406 9.87573 8.55249 6.78308 8.55563 3.692C8.55721 1.20026 9.72914 0.012595 12.1941 0.0110219C16.9369 0.00787577 21.6813 0.0188872 26.4241 1.04338e-05C27.0219 -0.00156263 27.4576 0.174621 27.8713 0.608788C31.0552 3.94527 34.2706 7.25185 37.4419 10.6009C37.7471 10.9234 37.972 11.4677 37.9736 11.9113C38.005 20.1919 38.0035 28.4741 37.994 36.7547C37.9909 39.0672 36.7482 40.2784 34.4263 40.28C26.9841 40.2831 19.5419 40.2831 12.0982 40.28C9.78105 40.2784 8.56979 39.0719 8.55249 36.7406C8.5399 34.8545 8.55249 32.9668 8.55406 31.0807C8.55406 30.8227 8.55406 30.5663 8.55406 30.2139C6.86616 30.2139 5.24747 30.14 3.63822 30.2297C0.518827 30.4027 -0.0584887 29.0908 0.00443398 26.5927C0.0862335 23.3192 0.0185916 20.0425 0.02803 16.7658C0.0343223 14.7994 0.890071 13.9626 2.87214 13.9578C4.72678 13.9531 6.58143 13.9563 8.55406 13.9563ZM36.4084 12.4131C36.023 12.4131 35.7367 12.4131 35.4488 12.4131C32.5905 12.4131 29.7338 12.4162 26.8756 12.4115C25.8059 12.4099 25.6045 12.2054 25.603 11.12C25.5982 8.2366 25.6014 5.35316 25.6014 2.46815C25.6014 2.18972 25.6014 1.91129 25.6014 1.56679C25.2695 1.56679 25.0382 1.56679 24.807 1.56679C20.5865 1.56679 16.3659 1.56521 12.1454 1.56836C10.6038 1.56836 10.102 2.05916 10.0988 3.58189C10.0941 6.75477 10.1193 9.92607 10.0799 13.0974C10.0705 13.8037 10.2797 13.9767 10.964 13.9704C14.8699 13.939 18.7759 13.9547 22.6818 13.9563C24.7708 13.9578 25.6014 14.779 25.6014 16.8428C25.603 20.3823 25.6045 23.9217 25.5998 27.4611C25.5967 29.3173 24.7063 30.2108 22.8532 30.2124C18.8954 30.2155 14.936 30.2139 10.9782 30.2124C10.7029 30.2124 10.4292 30.2124 10.0941 30.2124C10.0941 32.4257 10.0909 34.5194 10.0957 36.6132C10.0988 38.2413 10.5802 38.7211 12.2083 38.7211C19.575 38.7211 26.9417 38.7211 34.3083 38.7211C35.9758 38.7211 36.4446 38.246 36.4446 36.5581C36.4446 28.7982 36.4446 21.0382 36.443 13.2783C36.4461 13.0234 36.4241 12.767 36.4084 12.4131ZM12.8139 15.501C9.48689 15.501 6.15985 15.4995 2.83281 15.5026C1.79616 15.5042 1.57908 15.715 1.5775 16.7406C1.57278 20.3036 1.57278 23.8666 1.57908 27.4296C1.58065 28.4474 1.7993 28.6534 2.8391 28.6534C9.49318 28.655 16.1473 28.655 22.8029 28.6534C23.8521 28.6534 24.0456 28.46 24.0456 27.4233C24.0472 23.887 24.0472 20.3492 24.0441 16.813C24.0425 15.663 23.8868 15.5042 22.718 15.5026C19.4161 15.4979 16.1142 15.501 12.8139 15.501ZM27.2185 2.18343C27.2185 5.18012 27.2185 7.99277 27.2185 10.7944C29.9808 10.7944 32.6802 10.7944 35.507 10.7944C32.7164 7.89524 30.0201 5.09361 27.2185 2.18343Z" fill="black"/>
<path d="M12.8131 15.501C16.1134 15.501 19.4153 15.4979 22.7156 15.5026C23.8844 15.5042 24.0417 15.6631 24.0417 16.813C24.0448 20.3492 24.0448 23.8871 24.0432 27.4233C24.0432 28.46 23.8498 28.6519 22.8005 28.6534C16.1464 28.655 9.49237 28.655 2.83672 28.6534C1.79534 28.6534 1.57826 28.4458 1.57669 27.4296C1.57197 23.8666 1.5704 20.3036 1.57512 16.7406C1.57669 15.715 1.79377 15.5042 2.83042 15.5026C6.15746 15.4995 9.48607 15.501 12.8131 15.501Z" fill="#4C535B"/>
<path d="M3.8457 19.3711H6.32329C6.91476 19.3711 7.43859 19.4985 7.89163 19.7518C8.34625 20.0066 8.69862 20.3637 8.95031 20.8262C9.202 21.2887 9.32785 21.8251 9.32785 22.4386C9.32785 23.0521 9.202 23.5901 8.95031 24.051C8.69862 24.5135 8.34625 24.8705 7.89163 25.1254C7.43702 25.3802 6.91476 25.5061 6.32329 25.5061H3.8457V19.3711ZM6.26036 24.342C6.80464 24.342 7.24038 24.1705 7.56444 23.8292C7.88849 23.4878 8.05051 23.0238 8.05051 22.4401C8.05051 21.8565 7.88849 21.3925 7.56444 21.0511C7.24038 20.7098 6.80464 20.5383 6.26036 20.5383H5.1073V24.342H6.26036Z" fill="white"/>
<path d="M11.4656 25.2004C11.011 24.9251 10.6555 24.5476 10.3991 24.0647C10.1427 23.5833 10.0137 23.0406 10.0137 22.4381C10.0137 21.8356 10.1427 21.2945 10.3991 20.8116C10.6555 20.3302 11.011 19.9511 11.4656 19.6758C11.9202 19.4005 12.4299 19.2637 12.9962 19.2637C13.5625 19.2637 14.0706 19.4005 14.5221 19.6758C14.9736 19.9511 15.3291 20.3286 15.5886 20.8116C15.8482 21.2929 15.9772 21.8356 15.9772 22.4381C15.9772 23.0406 15.8466 23.5817 15.5886 24.0647C15.3291 24.546 14.9736 24.9251 14.5221 25.2004C14.0706 25.4757 13.5609 25.6126 12.9962 25.6126C12.4299 25.6126 11.9202 25.4741 11.4656 25.2004ZM13.8677 24.1528C14.1272 23.986 14.3317 23.7532 14.4796 23.4559C14.6275 23.1586 14.7014 22.8188 14.7014 22.4397C14.7014 22.0606 14.6275 21.7208 14.4796 21.4235C14.3317 21.1262 14.1272 20.8934 13.8677 20.7266C13.6081 20.5599 13.3171 20.4765 12.9962 20.4765C12.6737 20.4765 12.3843 20.5599 12.1247 20.7266C11.8652 20.8934 11.6607 21.1262 11.5128 21.4235C11.3649 21.7208 11.291 22.0606 11.291 22.4397C11.291 22.8204 11.3649 23.1586 11.5128 23.4559C11.6607 23.7532 11.8652 23.986 12.1247 24.1528C12.3843 24.3195 12.6753 24.4029 12.9962 24.4029C13.3187 24.4029 13.6081 24.3195 13.8677 24.1528Z" fill="white"/>
<path d="M18.1081 25.204C17.6598 24.9318 17.3059 24.5559 17.0495 24.0729C16.7931 23.5916 16.6641 23.0457 16.6641 22.4385C16.6641 21.8313 16.7931 21.2854 17.0495 20.8041C17.3059 20.3227 17.6598 19.9452 18.1081 19.673C18.5565 19.4009 19.0614 19.2656 19.623 19.2656C20.0949 19.2656 20.5228 19.3584 20.9035 19.5456C21.2857 19.7328 21.6051 20.0018 21.8646 20.3526L21.0545 21.1942C20.6864 20.7144 20.2286 20.4753 19.6844 20.4753C19.3461 20.4753 19.0457 20.5587 18.7814 20.7254C18.5171 20.8922 18.3095 21.125 18.1616 21.4223C18.0138 21.7196 17.9398 22.0594 17.9398 22.4385C17.9398 22.8192 18.0138 23.1574 18.1616 23.4547C18.3095 23.752 18.5156 23.9848 18.7814 24.1516C19.0457 24.3183 19.3477 24.4017 19.6844 24.4017C20.2286 24.4017 20.6864 24.1594 21.0545 23.6734L21.8646 24.515C21.6051 24.872 21.2826 25.1426 20.8988 25.3298C20.5149 25.517 20.0855 25.6098 19.6136 25.6098C19.0598 25.613 18.5565 25.4761 18.1081 25.204Z" fill="white"/>
</svg>
