<svg width="36" height="35" viewBox="0 0 36 35" fill="none" xmlns="http://www.w3.org/2000/svg">
<path d="M17.5027 2.574e-05C27.0935 -0.0163805 34.9754 7.81213 35.0014 17.3811C35.0273 27.1441 27.2139 34.9945 17.4658 35C7.85586 35.0055 0.0109489 27.1537 1.14469e-05 17.5164C-0.010926 7.85041 7.81758 0.016432 17.5027 2.574e-05ZM13.799 12.4277C14.2775 12.9213 14.9051 13.2658 14.942 13.6651C15.0527 14.8983 14.9707 16.1533 14.8969 17.3947C14.8668 17.8992 14.51 17.9772 14.1258 17.6586C13.9357 17.5014 13.7402 17.3223 13.6186 17.1117C12.8775 15.8375 12.1201 14.5701 11.4475 13.2604C11.1262 12.6342 10.7311 12.3074 10.0283 12.3184C9.1629 12.332 8.29747 12.3061 7.43204 12.3088C6.56934 12.3115 6.38614 12.6041 6.74571 13.4135C7.00411 13.9959 7.27208 14.5729 7.55235 15.1443C8.69805 17.4781 9.95039 19.7518 11.7264 21.6795C13.4818 23.5854 15.683 24.4508 18.2738 24.3127C19.0887 24.2703 19.3088 24.0611 19.4305 23.2723C19.4852 22.9141 19.5549 22.5545 19.6478 22.2045C19.8775 21.3391 20.2891 21.1982 20.9344 21.8053C21.5318 22.3658 22.076 22.9811 22.6475 23.5676C23.1478 24.083 23.7535 24.3455 24.4781 24.3428C25.3435 24.34 26.2131 24.4057 27.0717 24.3387C27.5051 24.3045 28.0451 24.1527 28.3131 23.8533C28.6904 23.4322 28.3172 22.9318 28.0082 22.5777C27.1264 21.5674 26.2254 20.5734 25.2943 19.6096C24.8568 19.1557 24.7693 18.7318 25.1357 18.2219C25.5732 17.6121 26.0285 17.0133 26.4469 16.3912C27.043 15.5067 27.6855 14.6426 28.1764 13.7006C28.7014 12.693 28.4307 12.3348 27.3055 12.3252C26.2814 12.3156 25.2547 12.3471 24.232 12.3143C23.5881 12.2938 23.2791 12.5904 22.9947 13.1496C22.348 14.4211 21.6412 15.6652 20.881 16.8711C20.6404 17.2512 20.151 17.474 19.775 17.7693C19.6424 17.2867 19.4182 16.8068 19.3977 16.3201C19.3525 15.2305 19.4154 14.1354 19.4195 13.043C19.4223 12.4182 19.1475 11.9369 18.4898 11.911C17.2416 11.8604 15.9879 11.8467 14.7424 11.911C14.3924 11.9301 14.0615 12.276 13.799 12.4277Z" fill="#24262C"/>
</svg>
