<svg width="35" height="35" viewBox="0 0 35 35" fill="none" xmlns="http://www.w3.org/2000/svg">
<path d="M17.5041 35C7.84993 35.0164 0.0136865 27.176 1.78234e-05 17.4863C-0.0136508 7.84035 7.83626 0.00957679 17.5301 8.72681e-06C27.1433 -0.00955934 34.9986 7.84992 35 17.4795C35.0014 27.1596 27.187 34.985 17.5041 35ZM17.3073 23.0727C18.6988 24.0951 20.082 25.1298 21.4844 26.1386C22.3702 26.7742 23.0016 26.5391 23.2272 25.4852C24.1867 21.0156 25.1449 16.5459 26.0593 12.0667C26.1441 11.6539 26.0484 11.0375 25.7819 10.7709C25.5714 10.5604 24.9262 10.6301 24.5462 10.7709C21.7756 11.8002 19.0227 12.8773 16.2644 13.9407C13.5279 14.9945 10.7846 16.0347 8.0618 17.1214C7.70368 17.2649 7.43987 17.6476 7.13233 17.9196C7.44807 18.1438 7.73238 18.4527 8.08367 18.5771C9.1963 18.9735 10.339 19.2851 11.4585 19.6651C11.9287 19.825 12.2936 19.7758 12.7228 19.5011C15.7723 17.5519 18.8382 15.6288 21.9054 13.7097C22.1542 13.5539 22.4563 13.4855 22.7337 13.3762C22.7994 13.4773 22.8663 13.5798 22.9319 13.681C22.7392 13.7999 22.5219 13.8942 22.3551 14.0432C19.8989 16.2507 17.4467 18.4636 15.0027 20.6848C14.8278 20.8434 14.6132 21.0634 14.5941 21.2712C14.4656 22.6476 14.3849 24.0282 14.2756 25.5959C15.5932 24.9658 16.2534 23.804 17.3073 23.0727Z" fill="#24262C"/>
</svg>
