<svg width="52" height="52" viewBox="0 0 52 52" fill="none" xmlns="http://www.w3.org/2000/svg">
<path d="M26.3037 0.00135677C26.476 0.244219 26.6809 0.469443 26.8125 0.732657C27.5262 2.14913 28.2263 3.57374 28.9169 5.00106C29.039 5.25478 29.1787 5.3701 29.4759 5.40945C31.1148 5.62789 32.7498 5.88025 34.386 6.11904C34.7551 6.17331 35.0875 6.28321 35.2096 6.68346C35.3263 7.06607 35.1078 7.3225 34.8555 7.56943C33.6927 8.70369 32.5408 9.84881 31.3713 10.9749C31.1243 11.2124 31.0606 11.4294 31.1257 11.7754C31.4269 13.3832 31.7064 14.9964 31.9479 16.615C31.9859 16.8715 31.8733 17.2771 31.6874 17.406C31.4798 17.5498 31.0524 17.5661 30.8164 17.4481C29.3212 16.7019 27.8477 15.9109 26.377 15.1144C26.1084 14.9693 25.9143 14.9598 25.6416 15.1077C24.217 15.881 22.7775 16.6245 21.3474 17.387C21.0232 17.5607 20.7057 17.7208 20.3556 17.4847C20.0015 17.2459 20.0341 16.9054 20.1006 16.5336C20.3774 14.9896 20.627 13.4402 20.8997 11.8948C20.973 11.4851 20.916 11.1866 20.5754 10.8759C19.4127 9.81624 18.2947 8.70776 17.155 7.62234C16.8837 7.36456 16.6666 7.09049 16.8036 6.6916C16.9312 6.31984 17.2324 6.22622 17.5973 6.17602C19.1861 5.95758 20.7695 5.70658 22.3582 5.48814C22.7436 5.43523 22.981 5.2887 23.1547 4.92237C23.8208 3.52082 24.5128 2.13013 25.217 0.746224C25.3581 0.4708 25.6009 0.246932 25.7977 0C25.9659 0.00135677 26.1341 0.00135677 26.3037 0.00135677ZM19.2065 7.39441C19.2512 7.49209 19.258 7.52873 19.2797 7.55043C19.9798 8.23696 20.684 8.92077 21.3827 9.61001C22.8711 11.0794 22.5916 10.4689 22.2768 12.4823C22.1235 13.47 21.9444 14.4537 21.7599 15.5337C23.08 14.8322 24.3052 14.1932 25.5168 13.5311C25.8818 13.3316 26.1993 13.3221 26.5602 13.5284C27.1164 13.8459 27.6904 14.1335 28.2575 14.4333C28.9087 14.778 29.56 15.1226 30.256 15.4916C30.256 15.3003 30.2723 15.1823 30.2533 15.0697C30.0484 13.873 29.8653 12.6709 29.6143 11.4837C29.5044 10.9654 29.6536 10.629 30.0036 10.268C30.9317 9.31017 31.8231 8.31837 32.7294 7.34014C32.7484 7.39848 32.6439 7.35099 32.534 7.33471C31.3156 7.15561 30.0986 6.95753 28.8748 6.81642C28.3565 6.75672 28.0526 6.52879 27.8342 6.07155C27.305 4.959 26.7488 3.85866 26.1993 2.7556C26.145 2.64706 26.0677 2.54937 25.9713 2.4042C25.3174 3.72162 24.6851 4.97121 24.0786 6.23301C23.9117 6.57899 23.6635 6.74723 23.3026 6.79336C23.0353 6.82728 22.7666 6.86391 22.5007 6.90461C21.4194 7.06335 20.3353 7.22617 19.2065 7.39441Z" fill="#E95A0C"/>
<path d="M0 12.1882C0.358188 11.7392 0.894112 11.7744 1.37984 11.7012C2.44897 11.5424 3.52489 11.4271 4.58996 11.2521C4.79754 11.2182 5.05262 11.0323 5.1503 10.8464C5.72965 9.74063 6.26828 8.61315 6.81913 7.49246C6.98195 7.16141 7.17054 6.86834 7.60063 6.8792C8.00767 6.8887 8.17455 7.17498 8.32922 7.4911C8.86515 8.5833 9.42278 9.66329 9.93699 10.765C10.1052 11.1259 10.3372 11.2412 10.709 11.286C11.9654 11.4366 13.2217 11.6021 14.4686 11.8165C14.7006 11.8558 15.0167 12.1191 15.0656 12.3307C15.1199 12.5695 14.991 12.9413 14.8105 13.1285C13.9408 14.0294 13.0345 14.8936 12.1241 15.7538C11.8541 16.0089 11.7496 16.2369 11.8338 16.6317C12.0807 17.7863 12.2761 18.9531 12.4565 20.1199C12.4999 20.4021 12.4932 20.7563 12.3575 20.9883C12.1282 21.379 11.7415 21.379 11.3385 21.1633C10.2056 20.5595 9.05916 19.9843 7.92897 19.3764C7.66169 19.2326 7.4636 19.2258 7.19089 19.3724C6.09326 19.968 4.97664 20.531 3.87087 21.1131C3.56153 21.2759 3.26304 21.4224 2.9252 21.1904C2.5643 20.9435 2.60364 20.5799 2.66199 20.2271C2.8655 18.9775 3.09344 17.732 3.27932 16.4811C3.30781 16.2911 3.21826 16.0184 3.0853 15.88C2.07179 14.8394 1.0325 13.8218 0 12.7988C0 12.5953 0 12.3918 0 12.1882ZM10.8189 19.2638C10.6412 18.2042 10.5136 17.2694 10.3182 16.3481C10.2043 15.8068 10.3318 15.4282 10.7294 15.0415C11.3765 14.4106 11.9613 13.7133 12.542 13.0769C12.5366 13.0756 12.4253 13.0308 12.31 13.0145C11.5244 12.9006 10.7402 12.7771 9.95328 12.6889C9.40243 12.6265 9.0171 12.4121 8.79731 11.8653C8.5463 11.2412 8.21797 10.647 7.92083 10.0405C7.80008 9.7949 7.67254 9.5534 7.50702 9.2332C7.06607 10.1409 6.63597 10.9278 6.29813 11.7514C6.03899 12.3823 5.62925 12.6441 4.9685 12.7052C4.09881 12.7852 3.23726 12.9521 2.29701 13.0932C2.46797 13.2723 2.57787 13.3958 2.69591 13.5097C3.30374 14.0986 3.91157 14.6861 4.52348 15.2708C4.80297 15.5381 4.89523 15.8271 4.81518 16.2274C4.61981 17.1988 4.47599 18.1811 4.29418 19.2679C5.26427 18.7659 6.1516 18.3276 7.01722 17.8514C7.40255 17.6398 7.72953 17.6465 8.10942 17.8541C8.96419 18.3181 9.83795 18.755 10.8189 19.2638Z" fill="#E95A0C"/>
<path d="M25.9931 49.1996C25.175 50.0245 24.4288 50.8101 23.6405 51.5495C23.4315 51.7462 23.0937 51.8941 22.8074 51.905C21.7424 51.9457 20.6759 51.9267 19.6095 51.9199C18.9393 51.9158 18.7045 51.6757 18.7045 50.9932C18.7018 47.9975 18.691 45.0031 18.7168 42.0073C18.7208 41.5433 18.5607 41.3602 18.1496 41.234C17.3111 40.9775 16.4903 40.6668 15.6559 40.3982C15.1552 40.2367 14.9232 39.945 14.9259 39.3955C14.93 38.2789 14.8879 37.1623 14.8418 36.047C14.8337 35.8435 14.7509 35.6183 14.6356 35.4473C14.0508 34.5777 13.443 33.7229 12.8446 32.8627C12.3766 32.1897 12.3752 32.0785 12.8338 31.4204C13.4321 30.5603 14.0413 29.7068 14.6234 28.8358C14.7455 28.6526 14.8323 28.4098 14.8418 28.1913C14.8893 27.0761 14.9246 25.9594 14.9273 24.8428C14.9286 24.3476 15.1227 24.0559 15.5867 23.8944C16.6382 23.5281 17.687 23.155 18.7249 22.752C18.9745 22.6543 19.2242 22.4698 19.3924 22.2609C20.0586 21.4305 20.7098 20.5853 21.3326 19.7224C21.6406 19.2963 21.9974 19.1973 22.475 19.3465C23.5048 19.6681 24.5332 19.9964 25.5725 20.2841C25.8466 20.36 26.1736 20.3655 26.4476 20.2936C27.4761 20.0276 28.495 19.7278 29.5112 19.4184C30.0173 19.2638 30.3714 19.3805 30.6875 19.82C31.3089 20.6857 31.9629 21.5269 32.6277 22.3599C32.7851 22.5567 33.0185 22.7344 33.2532 22.8239C34.2938 23.2174 35.344 23.5878 36.3996 23.9392C36.8704 24.0966 37.0725 24.3747 37.0752 24.8727C37.082 25.9717 37.1105 27.072 37.1621 28.171C37.1743 28.422 37.2652 28.7015 37.4049 28.9104C37.9693 29.753 38.5677 30.5725 39.1524 31.4015C39.6314 32.0812 39.6314 32.1843 39.1457 32.883C38.5568 33.7297 37.9558 34.5682 37.3859 35.4283C37.2557 35.6251 37.1729 35.8869 37.1621 36.123C37.1132 37.2383 37.0847 38.3549 37.0752 39.4715C37.0712 39.9505 36.8622 40.2191 36.4186 40.367C35.5068 40.6723 34.61 41.0169 33.6928 41.3032C33.3631 41.4063 33.2925 41.5677 33.2939 41.8812C33.3034 44.8769 33.3007 47.8713 33.2993 50.8671C33.2993 51.7137 33.0985 51.9199 32.2641 51.9213C31.2995 51.924 30.3348 51.905 29.3701 51.9294C28.9142 51.9403 28.5696 51.8114 28.2494 51.4722C27.5303 50.711 26.776 49.9838 25.9931 49.1996ZM14.1132 32.1341C14.7509 33.0594 15.3927 33.9522 15.9856 34.8761C16.166 35.1584 16.2908 35.5206 16.3098 35.8544C16.3628 36.7824 16.3614 37.7145 16.3533 38.6453C16.3505 38.9831 16.4469 39.1527 16.7861 39.2626C17.7155 39.5638 18.6381 39.8935 19.5471 40.2517C19.813 40.3561 20.0776 40.5542 20.258 40.7767C20.8645 41.5257 21.4466 42.295 22.0083 43.0778C22.2172 43.3695 22.418 43.4442 22.7586 43.3315C23.6717 43.0317 24.5889 42.7414 25.5169 42.4958C25.8235 42.4144 26.1858 42.413 26.4924 42.4931C27.4055 42.7305 28.3091 43.0059 29.2019 43.3112C29.5641 43.4347 29.7704 43.3899 29.997 43.0724C30.5451 42.3018 31.1163 41.5433 31.716 40.812C31.9181 40.5664 32.2126 40.3534 32.5083 40.2367C33.3848 39.8881 34.2803 39.5814 35.1758 39.2857C35.5136 39.1744 35.6547 39.0089 35.6479 38.6371C35.6316 37.724 35.633 36.8082 35.6873 35.8978C35.709 35.5477 35.8311 35.1651 36.0197 34.8694C36.6099 33.944 37.253 33.054 37.8866 32.1355C37.2475 31.2088 36.599 30.3011 35.9939 29.3649C35.8216 29.0977 35.7049 28.749 35.6886 28.4315C35.6384 27.4858 35.6384 26.5374 35.6452 25.5904C35.6479 25.2702 35.5407 25.1087 35.2314 25.0056C34.2884 24.6909 33.3482 24.3612 32.4215 24.0016C32.1705 23.9039 31.9222 23.7167 31.7526 23.5064C31.0484 22.6245 30.3755 21.7168 29.693 20.82C28.609 21.1456 27.5656 21.4835 26.5087 21.7629C26.1885 21.8471 25.8086 21.8403 25.4884 21.7548C24.4179 21.4712 23.3623 21.132 22.3068 20.8173C21.6135 21.7304 20.9622 22.6164 20.2743 23.4711C20.0844 23.7072 19.8062 23.9148 19.5254 24.0247C18.6326 24.3774 17.7236 24.6963 16.8091 24.9893C16.4509 25.1047 16.3478 25.2933 16.3519 25.646C16.3628 26.4913 16.3234 27.3379 16.3343 28.1832C16.341 28.696 16.2067 29.1316 15.9015 29.5495C15.295 30.3839 14.7265 31.2441 14.1132 32.1341ZM23.7748 49.5415C24.327 48.973 24.7707 48.509 25.2211 48.0531C25.8873 47.3815 26.1112 47.3856 26.7936 48.0653C27.2495 48.5198 27.7054 48.9757 28.2481 49.5198C28.2481 48.2892 28.2508 47.2106 28.2467 46.1319C28.244 45.6272 28.4136 44.9787 28.1653 44.6558C27.9007 44.3125 27.24 44.2596 26.7434 44.113C26.4463 44.0262 26.1125 43.9109 25.8262 43.9679C25.1384 44.1035 24.4681 44.3315 23.7748 44.5269C23.7748 46.1577 23.7748 47.7682 23.7748 49.5415ZM29.7609 45.0601C29.7609 46.8849 29.7609 48.7166 29.7609 50.5387C30.4691 50.5387 31.1353 50.5387 31.7689 50.5387C31.7689 48.068 31.7689 45.6381 31.7689 43.1891C31.0362 43.7725 30.849 44.8538 29.7609 45.0601ZM22.2444 50.5577C22.2444 48.6826 22.2444 46.851 22.2444 45.0506C21.1115 44.9013 20.9839 43.7074 20.2065 43.1945C20.2065 45.6625 20.2065 48.1006 20.2065 50.5577C20.8944 50.5577 21.547 50.5577 22.2444 50.5577Z" fill="#E95A0C"/>
<path d="M40.2541 16.2035C40.1944 16.1235 40.1062 15.9688 39.9841 15.848C39.0927 14.9689 38.1986 14.0937 37.299 13.2227C37.0304 12.9622 36.8242 12.6935 36.9612 12.2892C37.0996 11.8808 37.4333 11.8266 37.8037 11.7737C39.0574 11.5973 40.3083 11.4046 41.5552 11.1875C41.7302 11.1577 41.9433 10.9935 42.026 10.8334C42.5918 9.73986 43.1304 8.63273 43.6718 7.52696C43.84 7.1837 44.0137 6.83772 44.4519 6.82551C44.8983 6.8133 45.0733 7.15656 45.2416 7.50254C45.7816 8.60967 46.3216 9.71679 46.89 10.809C46.9782 10.9786 47.2035 11.1523 47.3893 11.1848C48.6349 11.4046 49.8858 11.5973 51.1381 11.775C51.5221 11.8293 51.8463 11.946 51.9617 12.3326C52.0797 12.7248 51.9142 13.0409 51.6157 13.3231C50.7311 14.1602 49.8532 15.0041 49.0012 15.8738C48.856 16.0217 48.7651 16.3202 48.795 16.5264C48.9835 17.7937 49.2373 19.0527 49.415 20.3213C49.4516 20.5778 49.3227 20.9197 49.1531 21.1272C48.9252 21.4067 48.5874 21.3348 48.274 21.1679C47.1709 20.5818 46.0516 20.0242 44.9566 19.4231C44.6052 19.2305 44.3352 19.2481 43.9906 19.4367C42.9242 20.0201 41.8347 20.5588 40.7629 21.13C40.4427 21.3009 40.0899 21.4502 39.8389 21.1517C39.6652 20.9454 39.573 20.575 39.6096 20.301C39.7724 19.0975 39.9963 17.9036 40.1957 16.7055C40.2202 16.5726 40.2283 16.4369 40.2541 16.2035ZM49.647 13.1915C49.609 13.1413 49.5724 13.0897 49.5344 13.0395C48.5914 12.8944 47.6512 12.718 46.7028 12.6149C46.194 12.5592 45.9159 12.315 45.7137 11.8808C45.3026 11.003 44.8685 10.136 44.4017 9.17544C43.9187 10.1686 43.4683 11.0709 43.0409 11.984C42.8672 12.3571 42.6203 12.5497 42.1997 12.6013C41.2201 12.7234 40.2459 12.8889 39.2921 13.0341C39.8172 13.5944 40.2826 14.2064 40.8606 14.6799C41.619 15.3013 41.8781 15.9647 41.5796 16.9267C41.3612 17.6322 41.3219 18.3933 41.1862 19.2223C41.889 18.8601 42.4846 18.5453 43.0857 18.2427C44.7328 17.4151 44.1236 17.3934 45.8263 18.2522C46.4301 18.5562 47.0284 18.8709 47.7082 19.221C47.5182 18.1152 47.3215 17.1234 47.1926 16.1221C47.1587 15.8603 47.2686 15.5238 47.4287 15.308C47.6973 14.9444 48.0514 14.6419 48.3839 14.3298C48.7977 13.9404 49.2264 13.57 49.647 13.1915Z" fill="#E95A0C"/>
<path d="M35.139 32.1432C35.1377 37.1891 30.9887 41.3313 25.974 41.2947C20.9079 41.2567 16.8552 37.166 16.8593 32.093C16.8633 27.0621 20.9581 22.9715 25.993 22.9688C31.0307 22.966 35.139 27.0879 35.139 32.1432ZM25.9849 24.4721C21.7396 24.4748 18.273 27.9467 18.2812 32.188C18.2893 36.4211 21.7857 39.904 26.0134 39.889C30.2601 39.8728 33.7266 36.3967 33.7185 32.1609C33.709 27.9142 30.2452 24.4693 25.9849 24.4721Z" fill="#E95A0C"/>
<path d="M26.0106 38.92C22.2781 38.9295 19.2498 35.9012 19.2362 32.147C19.224 28.4471 22.2334 25.4011 25.9102 25.3916C29.7282 25.3821 32.7687 28.3982 32.7605 32.1863C32.7524 35.9134 29.7499 38.9105 26.0106 38.92ZM20.7056 32.1918C20.7111 35.1427 23.0746 37.4886 26.035 37.4805C28.9629 37.4723 31.2993 35.0885 31.2925 32.1158C31.2857 29.1892 28.9331 26.8284 26.0133 26.8149C23.0651 26.8027 20.7002 29.1987 20.7056 32.1918Z" fill="#E95A0C"/>
<path d="M29.8747 31.1904C29.7594 30.8051 29.3835 30.7522 29.2601 30.7346C28.6088 30.6423 28.0268 30.5514 27.4881 30.4564C27.4732 30.451 27.4447 30.4293 27.4379 30.4171C27.1734 29.9083 26.9169 29.3832 26.6686 28.8744L26.6551 28.8473C26.5723 28.6777 26.4217 28.3602 26.0269 28.3724C25.6511 28.3833 25.5059 28.6804 25.4191 28.8581L25.3648 28.968C25.1301 29.4483 24.8872 29.9463 24.6389 30.4252C24.6321 30.4361 24.6091 30.4537 24.6063 30.4551C24.0541 30.5514 23.4721 30.6423 22.8276 30.7332C22.6404 30.759 22.3283 30.8037 22.2076 31.1606C22.0787 31.5405 22.3392 31.7928 22.4369 31.8878C22.8643 32.303 23.2903 32.7195 23.7149 33.1374C23.7285 33.1496 23.7407 33.1672 23.7543 33.1849V33.1876C23.7502 33.2351 23.7462 33.2717 23.7407 33.307C23.7136 33.4698 23.6851 33.6326 23.658 33.7954C23.5888 34.1984 23.5169 34.6149 23.4612 35.0287C23.4327 35.239 23.5033 35.4927 23.6322 35.6447C23.7448 35.779 23.8778 35.8224 24.0012 35.8224C24.1749 35.8224 24.335 35.737 24.4069 35.699C24.6213 35.585 24.8384 35.4724 25.0541 35.3611C25.3485 35.2092 25.6511 35.0532 25.9482 34.8903C26.0432 34.8374 26.073 34.8429 26.1476 34.8836C26.4678 35.0586 26.7948 35.2282 27.1123 35.3937C27.3185 35.5009 27.5261 35.6081 27.7323 35.7166C28.1638 35.9459 28.4053 35.7315 28.4894 35.6284C28.602 35.49 28.7024 35.2526 28.6726 35.0355C28.6265 34.7045 28.5681 34.3721 28.5138 34.0519C28.4664 33.7805 28.4189 33.4997 28.3782 33.2269C28.3768 33.2066 28.3904 33.1577 28.4012 33.1442C28.8313 32.7046 29.2696 32.2867 29.64 31.9353C29.9344 31.6558 29.9303 31.3749 29.8747 31.1904ZM27.2358 32.5255C27.1123 32.6924 27.0485 32.9217 27.073 33.1103C27.1137 33.425 27.1666 33.7344 27.2249 34.0586C27.0852 33.9867 26.9495 33.9162 26.8125 33.8483C26.6917 33.7873 26.5967 33.7371 26.518 33.695C26.0771 33.4589 25.9794 33.4576 25.5642 33.6842C25.4855 33.7276 25.3878 33.7805 25.2617 33.8443C25.1151 33.9175 24.97 33.9922 24.818 34.0709C24.8438 33.8823 24.8736 33.7032 24.9238 33.539C25.0934 32.9895 24.9577 32.5581 24.4937 32.1782C24.3581 32.0669 24.2346 31.9353 24.1098 31.7955C24.4001 31.7494 24.6986 31.7046 24.9944 31.668C25.2834 31.6327 25.4828 31.4848 25.6076 31.2189C25.7365 30.9435 25.8695 30.6694 26.0106 30.3831C26.1422 30.6518 26.2684 30.9096 26.3905 31.1701C26.533 31.4753 26.7582 31.6395 27.0784 31.6748C27.3728 31.706 27.6727 31.7548 27.9644 31.8023C27.8829 31.8756 27.8029 31.9489 27.7229 32.0235L27.6428 32.0981C27.5031 32.227 27.3565 32.3613 27.2358 32.5255Z" fill="#E95A0C"/>
</svg>
