<svg width="20" height="19" viewBox="0 0 20 19" fill="none" xmlns="http://www.w3.org/2000/svg">
<path d="M8.64167 11.1189C8.64167 10.6129 8.64167 10.2242 8.64167 9.83554C8.64167 6.99566 8.64167 4.15668 8.64257 1.31681C8.64257 0.471786 8.98047 0.00914438 9.60039 0.000126025C10.2338 -0.00889233 10.5816 0.466375 10.5816 1.33845C10.5816 4.40379 10.5825 7.46822 10.5825 10.5336C10.5825 10.6923 10.5825 10.8519 10.5825 11.1107C10.7718 10.9358 10.8907 10.8321 11.0015 10.7211C11.8927 9.82832 12.7793 8.9301 13.674 8.04179C14.1056 7.61342 14.6913 7.59087 15.0824 7.96513C15.4924 8.35833 15.4852 8.94994 15.0346 9.40266C13.4794 10.9691 11.9197 12.5311 10.3546 14.0877C9.87341 14.5666 9.33999 14.5584 8.85252 14.0733C7.29911 12.5257 5.7502 10.9746 4.2049 9.41979C3.74806 8.95986 3.72374 8.38539 4.1238 7.98227C4.51666 7.58636 5.11406 7.60981 5.56368 8.05622C6.44851 8.93461 7.32434 9.82021 8.20556 10.7022C8.3191 10.8167 8.43894 10.925 8.64167 11.1189Z" fill="white"/>
<path d="M9.56463 18.2805C6.74254 18.2805 3.91955 18.2823 1.09746 18.2787C0.35229 18.2778 -0.127069 17.7547 0.0297136 17.1171C0.13784 16.6779 0.418067 16.4074 0.877603 16.374C1.19117 16.3506 1.50744 16.3623 1.8228 16.3623C7.18226 16.3623 12.5417 16.3623 17.9012 16.3632C18.7644 16.3632 19.2113 16.6807 19.2248 17.2993C19.2392 17.936 18.7743 18.2805 17.8967 18.2805C15.1196 18.2805 12.3417 18.2805 9.56463 18.2805Z" fill="white"/>
</svg>
