<svg width="16" height="22" viewBox="0 0 16 22" fill="none" xmlns="http://www.w3.org/2000/svg">
<path d="M8.00223 2.15629e-06C12.5661 -0.00333035 16.2369 3.85655 15.9886 8.41959C15.9028 9.9992 15.3538 11.4547 14.6381 12.8443C13.021 15.9877 10.7949 18.6729 8.31715 21.1639C8.11637 21.3664 7.92725 21.4072 7.71064 21.1889C4.95215 18.4021 2.4636 15.4154 0.872325 11.7838C-0.016622 9.75509 -0.317381 7.66978 0.401608 5.50531C1.48884 2.22945 4.54892 0.00250154 8.00223 2.15629e-06ZM8.01723 11.6705C10.0201 11.6696 11.6713 10.0117 11.6663 8.00803C11.6613 5.97103 10.0159 4.33143 7.9839 4.33643C5.97607 4.34226 4.33397 5.99102 4.3348 7.99969C4.33564 10.0317 5.98023 11.6721 8.01723 11.6705Z" fill="#E95A0C"/>
</svg>
