<svg version="1.2" xmlns="http://www.w3.org/2000/svg" viewBox="0 0 208 46" width="208" height="46">
	<title>logo-svg</title>
	<style>
		.s0 { fill: #ffffff } 
	</style>
	<path id="Layer" fill-rule="evenodd" class="s0" d="m3 28.1v-24h8q2.3 0 4.5 0.8 2.2 0.7 4 2.2 1.8 1.4 3 3.8 1.1 2.3 1.1 5.2 0 2.9-1.1 5.2-1.2 2.4-3 3.8-1.8 1.5-4 2.2-2.2 0.8-4.5 0.8zm2.4-2.2h4.9q2.6 0 4.6-0.8 2.1-0.8 3.4-2.2 1.3-1.4 2-3.2 0.7-1.7 0.7-3.6 0-1.9-0.7-3.6-0.7-1.8-2-3.2-1.3-1.4-3.4-2.2-2-0.8-4.6-0.8h-4.9z"/>
	<path id="Layer" class="s0" d="m70.8 4.1v21.8h11.2v2.2h-13.6v-24z"/>
	<path id="Layer" fill-rule="evenodd" class="s0" d="m96.5 21.8l-2.6 6.3h-2.7l10.4-24h2.4l10.3 24h-2.7l-2.7-6.3zm6.2-15l-5.3 12.8h10.6z"/>
	<path id="Layer" class="s0" d="m126 4.1l7.8 20.8 7.8-20.8h2.6l-9.1 24h-2.6l-9.2-24z"/>
	<path id="Layer" class="s0" d="m163.6 6.3v21.8h-2.4v-21.8h-8v-2.2h18.5v2.2z"/>
	<path id="Layer" fill-rule="evenodd" class="s0" d="m204.4 7.1q3.6 3.5 3.6 9 0 5.5-3.6 9-3.5 3.6-8.9 3.6-5.4 0-9-3.6-3.5-3.5-3.5-9 0-5.5 3.5-9 3.6-3.6 9-3.6 5.4 0 8.9 3.6zm-1.7 16.4q2.7-3 2.7-7.4 0-4.4-2.7-7.4-2.7-3.1-7.2-3.1-4.5 0-7.2 3.1-2.7 3-2.7 7.4 0 4.4 2.7 7.4 2.7 3 7.2 3 4.5 0 7.2-3z"/>
	<path id="Layer" fill-rule="evenodd" class="s0" d="m6.9 43.4v2h-0.6v-1.4h-5.6v1.4h-0.6v-2h0.3q0.7-0.1 0.9-1 0.2-1 0.3-2.7l0.1-2.1h4.3v5.8zm-5-1.3q-0.2 1-0.6 1.3h4v-5.2h-3.1v1.5q-0.1 1.5-0.3 2.4z"/>
	<path id="Layer" class="s0" d="m16 43.4v0.6h-4.5v-6.4h4.4v0.6h-3.7v2.2h3.3v0.6h-3.3v2.4h3.8z"/>
	<path id="Layer" class="s0" d="m25.7 37.6v6.4h-0.7v-5.8h-3.1v2.1q-0.1 1.3-0.2 2.1-0.2 0.8-0.6 1.2-0.3 0.4-0.9 0.4-0.2 0-0.5 0l0.1-0.6q0.1 0 0.3 0 0.4 0 0.6-0.3 0.3-0.3 0.4-1 0.1-0.7 0.2-1.8l0.1-2.7h4.3z"/>
	<path id="Layer" fill-rule="evenodd" class="s0" d="m32.1 43.6q-0.8-0.4-1.2-1.2-0.4-0.7-0.4-1.6 0-1 0.4-1.7 0.4-0.7 1.2-1.2 0.8-0.4 1.7-0.4 1 0 1.7 0.4 0.8 0.5 1.2 1.2 0.5 0.7 0.5 1.7 0 0.9-0.5 1.6-0.4 0.8-1.2 1.2-0.7 0.4-1.7 0.4-0.9 0-1.7-0.4zm3.1-0.5q0.6-0.4 0.9-1 0.4-0.6 0.4-1.3 0-0.8-0.4-1.4-0.3-0.6-0.9-0.9-0.6-0.4-1.4-0.4-0.7 0-1.4 0.4-0.6 0.3-0.9 0.9-0.4 0.6-0.4 1.4 0 0.7 0.4 1.3 0.3 0.6 0.9 1 0.7 0.3 1.4 0.3 0.8 0 1.4-0.3z"/>
	<path id="Layer" fill-rule="evenodd" class="s0" d="m46.8 41.2q0.3 0.4 0.3 1 0 0.9-0.6 1.3-0.6 0.5-1.7 0.5h-2.8v-6.4h2.6q1 0 1.6 0.4 0.6 0.4 0.6 1.2 0 0.6-0.3 0.9-0.3 0.4-0.8 0.6 0.7 0.1 1.1 0.5zm-4.2-0.7h2q0.7 0 1.1-0.3 0.4-0.3 0.4-0.9 0-0.6-0.4-0.9-0.4-0.3-1.1-0.3h-2zm3.8 1.8q0-1.3-1.6-1.3h-2.2v2.5h2.2q1.6 0 1.6-1.2z"/>
	<path id="Layer" fill-rule="evenodd" class="s0" d="m56.1 42.3h-3.6l-0.8 1.7h-0.7l3-6.4h0.6l2.9 6.4h-0.7zm-0.2-0.6l-1.6-3.4-1.5 3.4z"/>
	<path id="Layer" fill-rule="evenodd" class="s0" d="m66.2 37.6v6.4h-0.7v-2h-1.9q-0.1 0-0.4 0l-1.3 2h-0.7l1.4-2.1q-0.7-0.2-1.1-0.7-0.3-0.6-0.3-1.4 0-1 0.6-1.6 0.7-0.6 1.9-0.6zm-3.9 3.4q0.5 0.5 1.4 0.5h1.8v-3.3h-1.8q-0.9 0-1.3 0.4-0.5 0.4-0.5 1.2 0 0.8 0.4 1.2z"/>
	<path id="Layer" fill-rule="evenodd" class="s0" d="m81.2 42.3h-3.6l-0.8 1.7h-0.7l3-6.4h0.6l2.9 6.4h-0.7zm-0.2-0.6l-1.5-3.4-1.6 3.4z"/>
	<path id="Layer" fill-rule="evenodd" class="s0" d="m91.8 41.2q0.4 0.4 0.4 1 0 0.9-0.6 1.3-0.6 0.5-1.7 0.5h-2.9v-6.4h2.7q1 0 1.6 0.4 0.6 0.4 0.6 1.2 0 0.6-0.3 0.9-0.3 0.4-0.8 0.6 0.7 0.1 1 0.5zm-4.1-0.7h2q0.7 0 1.1-0.3 0.4-0.3 0.4-0.9 0-0.6-0.4-0.9-0.4-0.3-1.1-0.3h-2zm3.8 1.8q0-1.3-1.6-1.3h-2.2v2.5h2.2q1.6 0 1.6-1.2z"/>
	<path id="Layer" class="s0" d="m101.1 38.2h-2.2v5.8h-0.7v-5.8h-2.2v-0.6h5.1v0.6z"/>
	<path id="Layer" fill-rule="evenodd" class="s0" d="m106.5 43.6q-0.8-0.4-1.2-1.2-0.4-0.7-0.4-1.6 0-1 0.4-1.7 0.4-0.7 1.2-1.2 0.8-0.4 1.7-0.4 1 0 1.7 0.4 0.8 0.5 1.2 1.2 0.5 0.7 0.5 1.7 0 0.9-0.5 1.6-0.4 0.8-1.2 1.2-0.7 0.4-1.7 0.4-0.9 0-1.7-0.4zm3.1-0.5q0.6-0.4 0.9-1 0.4-0.6 0.4-1.3 0-0.8-0.4-1.4-0.3-0.6-0.9-0.9-0.6-0.4-1.4-0.4-0.7 0-1.4 0.4-0.6 0.3-0.9 0.9-0.4 0.6-0.4 1.4 0 0.7 0.4 1.3 0.3 0.6 0.9 1 0.7 0.3 1.4 0.3 0.8 0 1.4-0.3z"/>
	<path id="Layer" class="s0" d="m123 37.6v6.4h-0.7v-5.1l-2.5 4.3h-0.3l-2.5-4.3v5.1h-0.6v-6.4h0.5l2.8 4.7 2.7-4.7z"/>
	<path id="Layer" fill-rule="evenodd" class="s0" d="m132.4 42.3h-3.6l-0.7 1.7h-0.7l2.9-6.4h0.7l2.9 6.4h-0.7zm-0.3-0.6l-1.5-3.4-1.5 3.4z"/>
	<path id="Layer" class="s0" d="m142.1 38.2h-2.2v5.8h-0.7v-5.8h-2.2v-0.6h5.1v0.6z"/>
	<path id="Layer" class="s0" d="m146.5 37.6h0.7v5.3l4-5.3h0.7v6.4h-0.7v-5.3l-4.1 5.3h-0.6z"/>
	<path id="Layer" class="s0" d="m161 41.2q0.3 0.4 0.3 1 0 0.5-0.3 0.9-0.4 0.5-0.9 0.7-0.6 0.2-1.3 0.2-0.6 0-1.2-0.2-0.7-0.2-1.2-0.6l0.3-0.5q0.4 0.4 0.9 0.6 0.6 0.1 1.1 0.1 0.6 0 1-0.1 0.4-0.2 0.7-0.5 0.2-0.3 0.2-0.7 0-0.6-0.4-0.9-0.4-0.3-1.2-0.3h-1.4v-0.5h1.3q0.7 0 1.1-0.3 0.4-0.3 0.4-0.8 0-0.6-0.5-0.9-0.5-0.3-1.2-0.3-0.5 0-0.9 0.1-0.5 0.1-0.9 0.4l-0.3-0.5q1-0.6 2.1-0.6 0.6 0 1.2 0.2 0.5 0.2 0.8 0.6 0.3 0.4 0.3 0.9 0 0.5-0.2 0.9-0.3 0.4-0.8 0.5 0.6 0.2 1 0.6z"/>
	<path id="Layer" fill-rule="evenodd" class="s0" d="m170.3 42.3h-3.6l-0.8 1.7h-0.7l3-6.4h0.6l2.9 6.4h-0.7zm-0.2-0.6l-1.5-3.4-1.6 3.4z"/>
	<path id="Layer" class="s0" d="m182.3 43.4v2.1h-0.6v-1.5h-5.6v-6.4h0.7v5.8h3.9v-5.8h0.6v5.8z"/>
	<path id="Layer" class="s0" d="m186.9 37.6h0.6v5.3l4.1-5.3h0.6v6.4h-0.6v-5.3l-4.1 5.3h-0.6z"/>
	<path id="Layer" fill-rule="evenodd" class="s0" d="m202.1 37.6v6.4h-0.7v-2h-1.9q-0.1 0-0.4 0l-1.3 2h-0.7l1.4-2.1q-0.7-0.2-1-0.7-0.4-0.6-0.4-1.4 0-1 0.7-1.6 0.6-0.6 1.8-0.6zm-3.9 3.4q0.5 0.5 1.4 0.5h1.8v-3.3h-1.8q-0.8 0-1.3 0.4-0.5 0.4-0.5 1.2 0 0.8 0.4 1.2z"/>
</svg>