<svg width="260" height="55" viewBox="0 0 260 55" fill="none" xmlns="http://www.w3.org/2000/svg">
<path d="M0 31.1303V0.772461H10.0754C12.0207 0.772461 13.9202 1.09286 15.7797 1.73938C17.6391 2.38018 19.3384 3.31277 20.8832 4.52571C22.428 5.73865 23.6695 7.34065 24.6135 9.32598C25.5576 11.3113 26.0267 13.5198 26.0267 15.9514C26.0267 18.383 25.5576 20.5915 24.6135 22.5768C23.6695 24.5621 22.428 26.1641 20.8832 27.3771C19.3384 28.59 17.6391 29.5226 15.7797 30.1634C13.9202 30.8042 12.0207 31.1303 10.0754 31.1303H0ZM3.08957 3.51874V28.3898H9.22293C11.4257 28.3898 13.4053 28.0407 15.1618 27.337C16.9182 26.639 18.3429 25.695 19.4299 24.5049C20.517 23.3206 21.3466 21.9989 21.9188 20.54C22.4909 19.081 22.777 17.5534 22.777 15.9514C22.777 14.3494 22.4909 12.8218 21.9188 11.3628C21.3466 9.90385 20.517 8.5822 19.4299 7.39786C18.3429 6.21353 16.924 5.2695 15.1618 4.56576C13.4053 3.86775 11.4257 3.51302 9.22293 3.51302H3.08957V3.51874Z" fill="#48494E"/>
<path d="M85.7986 0.772461V28.3897H99.9476V31.136H82.709V0.772461H85.7986Z" fill="#48494E"/>
<path d="M118.303 23.1547L115.001 31.1303H111.614L124.733 0.772461H127.737L140.771 31.1303H137.338L133.991 23.1547H118.303ZM126.152 4.19959L119.464 20.3226H132.841L126.152 4.19959Z" fill="#48494E"/>
<path d="M155.565 0.772461L165.429 27.1425H165.514L175.378 0.772461H178.679L167.059 31.1303H163.798L152.224 0.772461H155.565Z" fill="#48494E"/>
<path d="M203.207 3.51874V31.136H200.118V3.51874H189.957V0.772461H213.369V3.51874H203.207Z" fill="#48494E"/>
<path d="M254.832 4.52564C257.835 7.54083 259.334 11.3513 259.334 15.9513C259.334 20.5513 257.835 24.3618 254.832 27.377C251.828 30.3922 248.058 31.9026 243.509 31.9026C238.966 31.9026 235.19 30.3979 232.186 27.377C229.183 24.3618 227.684 20.5513 227.684 15.9513C227.684 11.3513 229.183 7.54083 232.186 4.52564C235.196 1.51045 238.966 0 243.515 0C248.058 0 251.834 1.51045 254.832 4.52564ZM252.623 25.323C254.923 22.7655 256.073 19.6416 256.073 15.9513C256.073 12.261 254.923 9.13139 252.623 6.56247C250.323 3.98783 247.285 2.70051 243.509 2.70051C239.733 2.70051 236.701 3.98783 234.395 6.56247C232.095 9.13711 230.945 12.2667 230.945 15.9513C230.945 19.6359 232.095 22.7598 234.395 25.323C236.695 27.8805 239.733 29.1621 243.509 29.1621C247.285 29.1621 250.323 27.8805 252.623 25.323Z" fill="#48494E"/>
<path d="M8.76811 52.3741V54.9201H7.97283V53.1121H0.929767L0.918324 54.9201H0.123047L0.13449 52.3741H0.540711C1.0728 52.3455 1.43897 51.9221 1.64494 51.1096C1.85092 50.2972 1.97679 49.1472 2.02828 47.6596L2.11982 45.0449H7.56089V52.3741H8.76811ZM2.50316 50.7778C2.3544 51.5731 2.10266 52.1052 1.74793 52.3741H6.71412V45.783H2.85789L2.78923 47.7397C2.74918 48.9698 2.65191 49.9825 2.50316 50.7778Z" fill="#747476"/>
<path d="M20.2453 52.3741V53.1121H14.541V45.0449H20.0736V45.783H15.3935V48.6551H19.5644V49.3818H15.3935V52.3798H20.2453V52.3741Z" fill="#747476"/>
<path d="M32.4945 45.0448V53.112H31.6535V45.7828H27.7572L27.6656 48.4776C27.6256 49.5933 27.534 50.4859 27.3967 51.1667C27.2537 51.8476 27.0363 52.351 26.7445 52.6886C26.4527 53.0204 26.0636 53.1921 25.583 53.1921C25.3771 53.1921 25.1597 53.1635 24.9365 53.112L25.0052 52.351C25.1368 52.3796 25.2626 52.3968 25.3828 52.3968C25.7204 52.3968 25.995 52.2652 26.2067 51.9906C26.4184 51.7217 26.5786 51.304 26.6873 50.7376C26.796 50.1712 26.8704 49.4274 26.9047 48.4948L27.0191 45.0391H32.4945V45.0448Z" fill="#747476"/>
<path d="M40.6136 52.643C39.9671 52.2883 39.4579 51.7962 39.0917 51.1726C38.7256 50.549 38.5425 49.8509 38.5425 49.0728C38.5425 48.2947 38.7256 47.5967 39.0917 46.9731C39.4579 46.3494 39.9614 45.8631 40.6136 45.5027C41.2602 45.1479 41.9868 44.9648 42.7878 44.9648C43.5888 44.9648 44.3039 45.1422 44.9505 45.4969C45.5913 45.8517 46.0948 46.338 46.4666 46.9673C46.8328 47.591 47.0216 48.2947 47.0216 49.0728C47.0216 49.8509 46.8385 50.5489 46.4666 51.1783C46.1005 51.8019 45.5913 52.294 44.9505 52.6487C44.3097 53.0034 43.5888 53.1808 42.7878 53.1808C41.9868 53.1808 41.2602 53.0034 40.6136 52.643ZM44.5099 51.985C45.0248 51.699 45.4253 51.2985 45.7171 50.7892C46.0089 50.28 46.1577 49.7079 46.1577 49.0785C46.1577 48.4492 46.0147 47.877 45.7171 47.3678C45.4253 46.8586 45.0191 46.4581 44.5099 46.1721C43.995 45.886 43.4171 45.7372 42.7821 45.7372C42.147 45.7372 41.5634 45.8803 41.0485 46.1721C40.5278 46.4581 40.1216 46.8586 39.8241 47.3678C39.5266 47.877 39.3778 48.4492 39.3778 49.0785C39.3778 49.7079 39.5266 50.28 39.8241 50.7892C40.1216 51.2985 40.5278 51.699 41.0485 51.985C41.5691 52.2711 42.147 52.4199 42.7821 52.4199C43.4228 52.4199 43.995 52.2768 44.5099 51.985Z" fill="#747476"/>
<path d="M59.1459 49.6221C59.4377 49.9539 59.5864 50.3944 59.5864 50.9323C59.5864 51.6303 59.3404 52.1681 58.8427 52.5457C58.3449 52.9233 57.6183 53.1121 56.6571 53.1121H53.0869V45.0449H56.4397C57.2979 45.0449 57.973 45.2223 58.4536 45.577C58.9342 45.9317 59.1802 46.4409 59.1802 47.1104C59.1802 47.5623 59.0658 47.9457 58.8369 48.2546C58.6081 48.5636 58.282 48.7982 57.87 48.9526C58.4307 49.0671 58.8541 49.2902 59.1459 49.6221ZM53.928 48.6952H56.3939C57.0175 48.6952 57.4924 48.5693 57.83 48.3176C58.1618 48.0658 58.3335 47.6939 58.3335 47.2133C58.3335 46.727 58.1675 46.3608 57.83 46.1091C57.4981 45.8574 57.0175 45.7315 56.3939 45.7315H53.928V48.6952ZM58.7454 50.875C58.7454 49.8624 58.0474 49.3531 56.6571 49.3531H53.928V52.4313H56.6571C58.0474 52.4313 58.7454 51.9106 58.7454 50.875Z" fill="#747476"/>
<path d="M70.9139 50.9551H66.4226L65.4557 53.1121H64.5688L68.2534 45.0449H69.0945L72.7848 53.1121H71.8865L70.9139 50.9551ZM70.5992 50.2629L68.6654 45.9317L66.7315 50.2629H70.5992Z" fill="#747476"/>
<path d="M83.7016 45.0449V53.1121H82.8605V50.6691H80.4518C80.3431 50.6691 80.1886 50.6634 79.9884 50.6462L78.2948 53.1121H77.3851L79.216 50.4974C78.6267 50.3201 78.169 50.0054 77.8543 49.5591C77.5396 49.1071 77.3794 48.5579 77.3794 47.9056C77.3794 47.0016 77.6655 46.2979 78.2376 45.7944C78.8097 45.2967 79.5821 45.0449 80.5605 45.0449H83.7016ZM78.8212 49.4046C79.2103 49.7594 79.7767 49.9425 80.5205 49.9425H82.8605V45.783H80.6006C79.8453 45.783 79.2675 45.9603 78.8555 46.3208C78.4436 46.6755 78.2376 47.1962 78.2376 47.8827C78.2376 48.5407 78.4321 49.0499 78.8212 49.4046Z" fill="#747476"/>
<path d="M102.668 50.9551H98.177L97.2101 53.1121H96.3232L100.008 45.0449H100.849L104.539 53.1121H103.641L102.668 50.9551ZM102.359 50.2629L100.425 45.9317L98.4917 50.2629H102.359Z" fill="#747476"/>
<path d="M116.176 49.6221C116.468 49.9539 116.617 50.3944 116.617 50.9323C116.617 51.6303 116.371 52.1681 115.873 52.5457C115.375 52.9233 114.649 53.1121 113.687 53.1121H110.117V45.0449H113.47C114.328 45.0449 115.003 45.2223 115.484 45.577C115.964 45.9317 116.21 46.4409 116.21 47.1104C116.21 47.5623 116.096 47.9457 115.867 48.2546C115.638 48.5636 115.312 48.7982 114.9 48.9526C115.455 49.0671 115.884 49.2902 116.176 49.6221ZM110.953 48.6952H113.418C114.042 48.6952 114.517 48.5693 114.855 48.3176C115.186 48.0658 115.358 47.6939 115.358 47.2133C115.358 46.727 115.192 46.3608 114.855 46.1091C114.523 45.8574 114.042 45.7315 113.418 45.7315H110.953V48.6952ZM115.77 50.875C115.77 49.8624 115.072 49.3531 113.682 49.3531H110.953V52.4313H113.682C115.078 52.4313 115.77 51.9106 115.77 50.875Z" fill="#747476"/>
<path d="M127.94 45.783H125.108V53.1121H124.267V45.783H121.435V45.0449H127.946V45.783H127.94Z" fill="#747476"/>
<path d="M134.719 52.643C134.073 52.2883 133.563 51.7962 133.197 51.1726C132.831 50.549 132.648 49.8509 132.648 49.0728C132.648 48.2947 132.831 47.5967 133.197 46.9731C133.563 46.3494 134.067 45.8631 134.719 45.5027C135.366 45.1479 136.092 44.9648 136.893 44.9648C137.694 44.9648 138.409 45.1422 139.056 45.4969C139.697 45.8517 140.2 46.338 140.572 46.9673C140.938 47.591 141.127 48.2947 141.127 49.0728C141.127 49.8509 140.944 50.5489 140.572 51.1783C140.206 51.8019 139.697 52.294 139.056 52.6487C138.415 53.0034 137.694 53.1808 136.893 53.1808C136.092 53.1808 135.371 53.0034 134.719 52.643ZM138.621 51.985C139.136 51.699 139.537 51.2985 139.828 50.7892C140.12 50.28 140.269 49.7079 140.269 49.0785C140.269 48.4492 140.126 47.877 139.828 47.3678C139.537 46.8586 139.13 46.4581 138.621 46.1721C138.106 45.886 137.528 45.7372 136.893 45.7372C136.258 45.7372 135.675 45.8803 135.16 46.1721C134.639 46.4581 134.233 46.8586 133.935 47.3678C133.638 47.877 133.489 48.4492 133.489 49.0785C133.489 49.7079 133.638 50.28 133.935 50.7892C134.233 51.2985 134.639 51.699 135.16 51.985C135.68 52.2711 136.258 52.4199 136.893 52.4199C137.534 52.4199 138.106 52.2768 138.621 51.985Z" fill="#747476"/>
<path d="M155.574 45.0449V53.1121H154.756V46.6584L151.586 52.088H151.18L148.01 46.6927V53.1121H147.192V45.0449H147.896L151.397 51.0238L154.864 45.0449H155.574Z" fill="#747476"/>
<path d="M167.486 50.9551H162.995L162.028 53.1121H161.141L164.826 45.0449H165.667L169.357 53.1121H168.459L167.486 50.9551ZM167.177 50.2629L165.243 45.9317L163.31 50.2629H167.177Z" fill="#747476"/>
<path d="M179.81 45.783H176.978V53.1121H176.137V45.783H173.305V45.0449H179.816V45.783H179.81Z" fill="#747476"/>
<path d="M185.336 45.0449H186.177V51.7275L191.338 45.0449H192.111V53.1121H191.27V46.4409L186.109 53.1121H185.336V45.0449Z" fill="#747476"/>
<path d="M203.622 49.6051C203.925 49.9483 204.08 50.366 204.08 50.8466C204.08 51.3158 203.931 51.7277 203.639 52.0824C203.347 52.4372 202.958 52.7061 202.478 52.8949C201.997 53.0837 201.465 53.1752 200.899 53.1752C200.361 53.1752 199.834 53.0894 199.314 52.9178C198.793 52.7461 198.33 52.4887 197.912 52.1397L198.221 51.5275C198.576 51.825 198.976 52.0538 199.428 52.214C199.88 52.3742 200.338 52.4486 200.801 52.4486C201.242 52.4486 201.642 52.38 202.009 52.2426C202.375 52.1053 202.672 51.9051 202.89 51.6476C203.107 51.3901 203.216 51.0869 203.216 50.7322C203.216 50.263 203.033 49.9026 202.661 49.6508C202.295 49.3991 201.774 49.2675 201.105 49.2675H199.377V48.5752H201.059C201.625 48.5752 202.072 48.4551 202.392 48.2148C202.712 47.9745 202.873 47.6369 202.873 47.2078C202.873 46.7329 202.667 46.3553 202.26 46.0864C201.854 45.8118 201.345 45.6802 200.727 45.6802C200.344 45.6802 199.955 45.7374 199.566 45.8461C199.177 45.9548 198.799 46.1264 198.45 46.3496L198.164 45.6458C198.965 45.171 199.829 44.9307 200.756 44.9307C201.299 44.9307 201.803 45.0165 202.255 45.1938C202.707 45.3712 203.067 45.623 203.33 45.9548C203.593 46.2866 203.725 46.6757 203.725 47.1162C203.725 47.5454 203.605 47.9172 203.37 48.2262C203.13 48.5352 202.798 48.7583 202.369 48.8899C202.901 49.0215 203.313 49.2618 203.622 49.6051Z" fill="#747476"/>
<path d="M215.392 50.9551H210.901L209.934 53.1121H209.047L212.732 45.0449H213.573L217.263 53.1121H216.365L215.392 50.9551ZM215.078 50.2629L213.144 45.9317L211.21 50.2629H215.078Z" fill="#747476"/>
<path d="M230.673 52.3741V55.0002H229.878V53.1121H222.835V45.0449H223.676V52.3741H228.551V45.0449H229.392V52.3741H230.673Z" fill="#747476"/>
<path d="M236.4 45.0449H237.241V51.7275L242.402 45.0449H243.175V53.1121H242.333V46.4409L237.173 53.1121H236.4V45.0449Z" fill="#747476"/>
<path d="M255.642 45.0449V53.1121H254.8V50.6691H252.392C252.283 50.6691 252.129 50.6634 251.928 50.6462L250.235 53.1121H249.325L251.156 50.4974C250.567 50.3201 250.109 50.0054 249.794 49.5591C249.48 49.1071 249.319 48.5579 249.319 47.9056C249.319 47.0016 249.605 46.2979 250.178 45.7944C250.75 45.2967 251.522 45.0449 252.5 45.0449H255.642ZM250.761 49.4046C251.15 49.7594 251.717 49.9425 252.46 49.9425H254.8V45.783H252.54C251.785 45.783 251.207 45.9603 250.795 46.3208C250.384 46.6755 250.178 47.1962 250.178 47.8827C250.178 48.5407 250.372 49.0499 250.761 49.4046Z" fill="#747476"/>
<path d="M38.5166 3.16992H66.2483" stroke="#E85B0D" stroke-width="4" stroke-miterlimit="10"/>
<path d="M38.5166 15.7114H66.2483" stroke="#E85B0D" stroke-width="4" stroke-miterlimit="10"/>
<path d="M38.5166 28.6875H66.2483" stroke="#E85B0D" stroke-width="4" stroke-miterlimit="10"/>
</svg>
