<svg width="205" height="44" viewBox="0 0 205 44" fill="none" xmlns="http://www.w3.org/2000/svg">
<path d="M0 24.6078V0.610352H7.96447C9.50219 0.610352 11.0037 0.863623 12.4736 1.37469C13.9435 1.88123 15.2867 2.61843 16.5078 3.57724C17.729 4.53605 18.7104 5.80241 19.4566 7.37178C20.2029 8.94116 20.5738 10.6869 20.5738 12.6091C20.5738 14.5312 20.2029 16.277 19.4566 17.8464C18.7104 19.4157 17.729 20.6821 16.5078 21.6409C15.2867 22.5997 13.9435 23.3369 12.4736 23.8435C11.0037 24.35 9.50219 24.6078 7.96447 24.6078H0ZM2.44226 2.78125V22.4414H7.29059C9.03183 22.4414 10.5967 22.1655 11.9852 21.6092C13.3736 21.0575 14.4998 20.3112 15.3591 19.3705C16.2184 18.4343 16.8742 17.3896 17.3265 16.2363C17.7787 15.083 18.0049 13.8754 18.0049 12.6091C18.0049 11.3427 17.7787 10.1352 17.3265 8.98187C16.8742 7.82858 16.2184 6.78383 15.3591 5.84764C14.4998 4.91144 13.3781 4.16519 11.9852 3.6089C10.5967 3.05713 9.03183 2.77672 7.29059 2.77672H2.44226V2.78125Z" fill="white"/>
<path d="M67.8227 0.610352V22.4414H79.0073V24.6123H65.3804V0.610352H67.8227Z" fill="white"/>
<path d="M93.5163 18.3031L90.9067 24.6078H88.2293L98.5999 0.610352H100.974L111.277 24.6078H108.563L105.918 18.3031H93.5163ZM99.7215 3.31945L94.4345 16.0644H105.009L99.7215 3.31945Z" fill="white"/>
<path d="M122.972 0.610352L130.769 21.4555H130.837L138.634 0.610352H141.243L132.058 24.6078H129.48L120.33 0.610352H122.972Z" fill="white"/>
<path d="M160.633 2.78125V24.6123H158.19V2.78125H150.158V0.610352H168.665V2.78125H160.633Z" fill="white"/>
<path d="M201.441 3.57745C203.815 5.96092 205 8.97303 205 12.6093C205 16.2455 203.815 19.2576 201.441 21.6411C199.066 24.0246 196.086 25.2186 192.49 25.2186C188.899 25.2186 185.914 24.0291 183.54 21.6411C181.165 19.2576 179.98 16.2455 179.98 12.6093C179.98 8.97303 181.165 5.96092 183.54 3.57745C185.919 1.19399 188.899 0 192.495 0C196.086 0 199.071 1.19399 201.441 3.57745ZM199.695 20.0175C201.513 17.9958 202.422 15.5264 202.422 12.6093C202.422 9.69214 201.513 7.21823 199.695 5.18753C197.877 3.15232 195.475 2.13471 192.49 2.13471C189.505 2.13471 187.108 3.15232 185.286 5.18753C183.467 7.22275 182.558 9.69666 182.558 12.6093C182.558 15.5219 183.467 17.9913 185.286 20.0175C187.104 22.0391 189.505 23.0522 192.49 23.0522C195.475 23.0522 197.877 22.0391 199.695 20.0175Z" fill="white"/>
<path d="M6.93113 41.401V43.4136H6.30247V41.9844H0.735032L0.725987 43.4136H0.097332L0.106377 41.401H0.427489C0.8481 41.3784 1.13755 41.0437 1.30037 40.4015C1.46319 39.7593 1.56269 38.8502 1.60339 37.6743L1.67575 35.6074H5.97684V41.401H6.93113ZM1.97877 40.1392C1.86118 40.7678 1.66219 41.1884 1.38178 41.401H5.30748V36.1908H2.25918L2.20491 37.7376C2.17325 38.71 2.09636 39.5105 1.97877 40.1392Z" fill="white"/>
<path d="M16.0038 41.401V41.9844H11.4946V35.6074H15.8681V36.1908H12.1685V38.4612H15.4656V39.0356H12.1685V41.4055H16.0038V41.401Z" fill="white"/>
<path d="M25.6865 35.6071V41.9841H25.0217V36.1905H21.9418L21.8694 38.3207C21.8377 39.2026 21.7654 39.9081 21.6568 40.4463C21.5438 40.9845 21.3719 41.3825 21.1412 41.6494C20.9106 41.9117 20.603 42.0474 20.2231 42.0474C20.0603 42.0474 19.8885 42.0248 19.7121 41.9841L19.7663 41.3825C19.8704 41.4052 19.9699 41.4187 20.0648 41.4187C20.3317 41.4187 20.5488 41.3147 20.7161 41.0976C20.8834 40.8851 21.0101 40.5549 21.096 40.1071C21.1819 39.6594 21.2407 39.0714 21.2679 38.3342L21.3583 35.6025H25.6865V35.6071Z" fill="white"/>
<path d="M32.1045 41.6134C31.5934 41.333 31.1909 40.944 30.9014 40.4511C30.612 39.9581 30.4673 39.4063 30.4673 38.7912C30.4673 38.1762 30.612 37.6244 30.9014 37.1314C31.1909 36.6384 31.5889 36.254 32.1045 35.9691C32.6155 35.6887 33.1899 35.5439 33.8231 35.5439C34.4563 35.5439 35.0216 35.6841 35.5327 35.9646C36.0392 36.245 36.4372 36.6294 36.7312 37.1269C37.0207 37.6199 37.1699 38.1762 37.1699 38.7912C37.1699 39.4063 37.0252 39.9581 36.7312 40.4556C36.4418 40.9486 36.0392 41.3375 35.5327 41.6179C35.0261 41.8983 34.4563 42.0385 33.8231 42.0385C33.1899 42.0385 32.6155 41.8983 32.1045 41.6134ZM35.1844 41.0933C35.5915 40.8672 35.9081 40.5506 36.1387 40.1481C36.3694 39.7455 36.487 39.2933 36.487 38.7958C36.487 38.2983 36.3739 37.846 36.1387 37.4435C35.9081 37.041 35.587 36.7244 35.1844 36.4982C34.7774 36.2721 34.3206 36.1545 33.8186 36.1545C33.3166 36.1545 32.8553 36.2676 32.4482 36.4982C32.0366 36.7244 31.7155 37.041 31.4804 37.4435C31.2452 37.846 31.1276 38.2983 31.1276 38.7958C31.1276 39.2933 31.2452 39.7455 31.4804 40.1481C31.7155 40.5506 32.0366 40.8672 32.4482 41.0933C32.8598 41.3194 33.3166 41.437 33.8186 41.437C34.3251 41.437 34.7774 41.324 35.1844 41.0933Z" fill="white"/>
<path d="M46.7539 39.2256C46.9846 39.4879 47.1022 39.8361 47.1022 40.2613C47.1022 40.813 46.9077 41.2382 46.5142 41.5367C46.1208 41.8352 45.5464 41.9844 44.7866 41.9844H41.9644V35.6074H44.6147C45.2931 35.6074 45.8268 35.7476 46.2067 36.028C46.5866 36.3084 46.7811 36.711 46.7811 37.2401C46.7811 37.5974 46.6906 37.9004 46.5097 38.1447C46.3288 38.3889 46.071 38.5743 45.7454 38.6964C46.1886 38.7869 46.5233 38.9633 46.7539 39.2256ZM42.6292 38.4929H44.5785C45.0715 38.4929 45.4469 38.3934 45.7137 38.1944C45.976 37.9954 46.1117 37.7014 46.1117 37.3215C46.1117 36.9371 45.9805 36.6476 45.7137 36.4486C45.4514 36.2496 45.0715 36.1501 44.5785 36.1501H42.6292V38.4929ZM46.4373 40.216C46.4373 39.4155 45.8856 39.013 44.7866 39.013H42.6292V41.4462H44.7866C45.8856 41.4462 46.4373 41.0347 46.4373 40.216Z" fill="white"/>
<path d="M56.0563 40.2794H52.5059L51.7416 41.9844H51.0406L53.9532 35.6074H54.618L57.5352 41.9844H56.8251L56.0563 40.2794ZM55.8075 39.7321L54.2788 36.3084L52.7502 39.7321H55.8075Z" fill="white"/>
<path d="M66.1647 35.6074V41.9844H65.4999V40.0532H63.5958C63.5099 40.0532 63.3878 40.0487 63.2295 40.0351L61.8908 41.9844H61.1717L62.6189 39.9176C62.1531 39.7773 61.7913 39.5286 61.5425 39.1758C61.2938 38.8185 61.1672 38.3844 61.1672 37.8688C61.1672 37.1542 61.3933 36.5979 61.8456 36.1999C62.2978 35.8064 62.9084 35.6074 63.6818 35.6074H66.1647ZM62.3069 39.0537C62.6144 39.3341 63.0622 39.4789 63.6501 39.4789H65.4999V36.1908H63.7134C63.1164 36.1908 62.6597 36.3311 62.334 36.616C62.0084 36.8964 61.8456 37.308 61.8456 37.8507C61.8456 38.3708 61.9993 38.7733 62.3069 39.0537Z" fill="white"/>
<path d="M81.1578 40.2794H77.6075L76.8431 41.9844H76.1421L79.0547 35.6074H79.7196L82.6367 41.9844H81.9266L81.1578 40.2794ZM80.9136 39.7321L79.3849 36.3084L77.8562 39.7321H80.9136Z" fill="white"/>
<path d="M91.8358 39.2256C92.0665 39.4879 92.1841 39.8361 92.1841 40.2613C92.1841 40.813 91.9896 41.2382 91.5961 41.5367C91.2026 41.8352 90.6282 41.9844 89.8684 41.9844H87.0463V35.6074H89.6966C90.375 35.6074 90.9087 35.7476 91.2886 36.028C91.6685 36.3084 91.8629 36.711 91.8629 37.2401C91.8629 37.5974 91.7725 37.9004 91.5916 38.1447C91.4107 38.3889 91.1529 38.5743 90.8272 38.6964C91.2659 38.7869 91.6051 38.9633 91.8358 39.2256ZM87.7066 38.4929H89.6559C90.1488 38.4929 90.5242 38.3934 90.7911 38.1944C91.0534 37.9954 91.1891 37.7014 91.1891 37.3215C91.1891 36.9371 91.0579 36.6476 90.7911 36.4486C90.5287 36.2496 90.1488 36.1501 89.6559 36.1501H87.7066V38.4929ZM91.5147 40.216C91.5147 39.4155 90.9629 39.013 89.8639 39.013H87.7066V41.4462H89.8639C90.9674 41.4462 91.5147 41.0347 91.5147 40.216Z" fill="white"/>
<path d="M101.134 36.1908H98.8957V41.9844H98.2309V36.1908H95.9922V35.6074H101.139V36.1908H101.134Z" fill="white"/>
<path d="M106.493 41.6134C105.982 41.333 105.58 40.944 105.29 40.4511C105.001 39.9581 104.856 39.4063 104.856 38.7912C104.856 38.1762 105.001 37.6244 105.29 37.1314C105.58 36.6384 105.978 36.254 106.493 35.9691C107.004 35.6887 107.579 35.5439 108.212 35.5439C108.845 35.5439 109.411 35.6841 109.922 35.9646C110.428 36.245 110.826 36.6294 111.12 37.1269C111.41 37.6199 111.559 38.1762 111.559 38.7912C111.559 39.4063 111.414 39.9581 111.12 40.4556C110.831 40.9486 110.428 41.3375 109.922 41.6179C109.415 41.8983 108.845 42.0385 108.212 42.0385C107.579 42.0385 107.009 41.8983 106.493 41.6134ZM109.578 41.0933C109.985 40.8672 110.301 40.5506 110.532 40.1481C110.763 39.7455 110.88 39.2933 110.88 38.7958C110.88 38.2983 110.767 37.846 110.532 37.4435C110.301 37.041 109.98 36.7244 109.578 36.4982C109.171 36.2721 108.714 36.1545 108.212 36.1545C107.71 36.1545 107.249 36.2676 106.842 36.4982C106.43 36.7244 106.109 37.041 105.874 37.4435C105.639 37.846 105.521 38.2983 105.521 38.7958C105.521 39.2933 105.639 39.7455 105.874 40.1481C106.109 40.5506 106.43 40.8672 106.842 41.0933C107.253 41.3194 107.71 41.437 108.212 41.437C108.719 41.437 109.171 41.324 109.578 41.0933Z" fill="white"/>
<path d="M122.979 35.6074V41.9844H122.332V36.8828L119.827 41.1749H119.506L117 36.91V41.9844H116.353V35.6074H116.91L119.677 40.3336L122.418 35.6074H122.979Z" fill="white"/>
<path d="M132.395 40.2794H128.845L128.081 41.9844H127.38L130.292 35.6074H130.957L133.874 41.9844H133.164L132.395 40.2794ZM132.151 39.7321L130.622 36.3084L129.094 39.7321H132.151Z" fill="white"/>
<path d="M142.137 36.1908H139.899V41.9844H139.234V36.1908H136.995V35.6074H142.142V36.1908H142.137Z" fill="white"/>
<path d="M146.506 35.6074H147.171V40.8899L151.25 35.6074H151.861V41.9844H151.196V36.711L147.116 41.9844H146.506V35.6074Z" fill="white"/>
<path d="M160.96 39.2116C161.2 39.483 161.322 39.8132 161.322 40.1931C161.322 40.5639 161.205 40.8896 160.974 41.17C160.743 41.4504 160.436 41.6629 160.056 41.8122C159.676 41.9614 159.255 42.0338 158.808 42.0338C158.382 42.0338 157.966 41.966 157.555 41.8303C157.143 41.6946 156.777 41.4911 156.447 41.2152L156.691 40.7313C156.971 40.9665 157.288 41.1474 157.645 41.274C158.003 41.4006 158.364 41.4594 158.731 41.4594C159.079 41.4594 159.396 41.4052 159.685 41.2966C159.974 41.1881 160.21 41.0298 160.382 40.8262C160.553 40.6227 160.639 40.383 160.639 40.1026C160.639 39.7318 160.495 39.4468 160.201 39.2478C159.911 39.0488 159.5 38.9448 158.97 38.9448H157.605V38.3976H158.934C159.382 38.3976 159.735 38.3026 159.988 38.1126C160.241 37.9227 160.368 37.6558 160.368 37.3166C160.368 36.9413 160.205 36.6428 159.884 36.4302C159.563 36.2131 159.16 36.1091 158.672 36.1091C158.369 36.1091 158.061 36.1543 157.754 36.2402C157.446 36.3262 157.148 36.4618 156.872 36.6382L156.646 36.0819C157.279 35.7066 157.962 35.5166 158.695 35.5166C159.124 35.5166 159.522 35.5844 159.879 35.7246C160.237 35.8648 160.522 36.0638 160.73 36.3262C160.938 36.5885 161.042 36.896 161.042 37.2443C161.042 37.5835 160.947 37.8775 160.761 38.1217C160.571 38.3659 160.309 38.5423 159.97 38.6463C160.391 38.7503 160.716 38.9403 160.96 39.2116Z" fill="white"/>
<path d="M170.265 40.2794H166.714L165.95 41.9844H165.249L168.162 35.6074H168.826L171.743 41.9844H171.033L170.265 40.2794ZM170.016 39.7321L168.487 36.3084L166.958 39.7321H170.016Z" fill="white"/>
<path d="M182.344 41.401V43.4769H181.715V41.9844H176.148V35.6074H176.813V41.401H180.666V35.6074H181.331V41.401H182.344Z" fill="white"/>
<path d="M186.871 35.6074H187.536V40.8899L191.615 35.6074H192.226V41.9844H191.561V36.711L187.482 41.9844H186.871V35.6074Z" fill="white"/>
<path d="M202.081 35.6074V41.9844H201.416V40.0532H199.512C199.426 40.0532 199.304 40.0487 199.146 40.0351L197.807 41.9844H197.088L198.535 39.9176C198.069 39.7773 197.707 39.5286 197.459 39.1758C197.21 38.8185 197.083 38.3844 197.083 37.8688C197.083 37.1542 197.309 36.5979 197.762 36.1999C198.214 35.8064 198.825 35.6074 199.598 35.6074H202.081ZM198.223 39.0537C198.531 39.3341 198.978 39.4789 199.566 39.4789H201.416V36.1908H199.63C199.033 36.1908 198.576 36.3311 198.25 36.616C197.924 36.8964 197.762 37.308 197.762 37.8507C197.762 38.3708 197.915 38.7733 198.223 39.0537Z" fill="white"/>
<path d="M30.4468 2.50586H52.3684" stroke="#E85B0D" stroke-width="2" stroke-miterlimit="10"/>
<path d="M30.4469 12.4199H52.3685" stroke="#E85B0D" stroke-width="2" stroke-miterlimit="10"/>
<path d="M30.4469 22.6768H52.3685" stroke="#E85B0D" stroke-width="2" stroke-miterlimit="10"/>
</svg>
