<svg width="20" height="14" viewBox="0 0 20 14" fill="none" xmlns="http://www.w3.org/2000/svg">
<path d="M19.0153 3.44859C18.7571 3.569 18.5712 3.64896 18.3911 3.74143C16.3499 4.78564 14.3048 5.8231 12.2694 6.87791C10.4353 7.82868 8.61752 7.81615 6.7863 6.87213C4.74894 5.82118 2.70099 4.78853 0.656884 3.7501C0.462299 3.65088 0.263861 3.56033 0.00280938 3.43414C0.00280938 3.66052 0.00280938 3.80116 0.00280938 3.9418C0.00280938 6.14099 0.000882802 8.34018 0.00280938 10.5394C0.00569926 12.6172 1.39573 13.9976 3.48896 13.9986C7.50299 14.0005 11.518 14.0005 15.532 13.9986C17.658 13.9976 19.0124 12.6374 19.0153 10.5008C19.0182 8.33344 19.0162 6.167 19.0162 3.99959C19.0153 3.84354 19.0153 3.68749 19.0153 3.44859ZM0.365007 1.82737C0.489271 1.89866 0.583674 1.95742 0.68193 2.00751C2.99479 3.18947 5.31151 4.36372 7.62051 5.55338C8.88339 6.20457 10.126 6.21902 11.3957 5.56591C13.7191 4.37046 16.0541 3.19621 18.3834 2.01136C18.4903 1.95742 18.5876 1.88421 18.7051 1.80907C18.0125 0.574132 16.9924 -0.00287907 15.6139 1.07998e-05C11.5681 0.00771713 7.52226 0.00290067 3.47644 0.00386396C3.28378 0.00386396 3.08919 0.00482725 2.89943 0.0308361C1.75118 0.185926 0.937202 0.812065 0.365007 1.82737Z" fill="white"/>
<path d="M19.0147 3.44901C19.0147 3.6879 19.0147 3.84299 19.0147 3.99905C19.0147 6.16645 19.0166 8.33289 19.0138 10.5003C19.0109 12.6369 17.6565 13.997 15.5305 13.998C11.5165 13.9999 7.50147 13.9999 3.48743 13.998C1.39517 13.997 0.00417426 12.6166 0.00128439 10.5388C-0.00160549 8.33964 0.00128439 6.14044 0.00128439 3.94125C0.00128439 3.80061 0.00128439 3.65997 0.00128439 3.43359C0.2633 3.55978 0.461737 3.65033 0.655359 3.74955C2.69946 4.78894 4.74646 5.82159 6.78478 6.87158C8.61696 7.8156 10.4347 7.82813 12.2678 6.87736C14.3033 5.82159 16.3474 4.78413 18.3895 3.74088C18.5706 3.64937 18.7566 3.56942 19.0147 3.44901Z" fill="#E95A0C"/>
<path d="M0.365234 1.82737C0.937429 0.812065 1.75141 0.185926 2.89965 0.0308361C3.08942 0.00482725 3.28401 0.00386396 3.47666 0.00386396C7.52249 0.00290067 11.5683 0.00771713 15.6141 1.07998e-05C16.9926 -0.00287907 18.0127 0.574132 18.7063 1.81003C18.5888 1.88421 18.4915 1.95742 18.3846 2.01233C16.0553 3.19717 13.7203 4.37143 11.3968 5.56687C10.1272 6.21998 8.88458 6.20553 7.62171 5.55435C5.31173 4.36468 2.99502 3.19043 0.682157 2.00847C0.583901 1.95838 0.490462 1.89866 0.365234 1.82737Z" fill="#E95A0C"/>
</svg>
