<svg width="38" height="41" viewBox="0 0 38 41" fill="none" xmlns="http://www.w3.org/2000/svg">
<path d="M8.55406 13.9563C8.55406 13.5378 8.55406 13.2531 8.55406 12.9684C8.55406 9.87573 8.55249 6.78308 8.55563 3.692C8.55721 1.20026 9.72914 0.012595 12.1941 0.0110219C16.9369 0.00787577 21.6813 0.0188872 26.4241 1.04338e-05C27.0219 -0.00156263 27.4576 0.174621 27.8713 0.608788C31.0552 3.94527 34.2706 7.25185 37.4419 10.6009C37.7471 10.9234 37.972 11.4677 37.9736 11.9113C38.005 20.1919 38.0035 28.4741 37.994 36.7547C37.9909 39.0672 36.7482 40.2784 34.4263 40.28C26.9841 40.2831 19.5419 40.2831 12.0982 40.28C9.78105 40.2784 8.56979 39.0719 8.55249 36.7406C8.5399 34.8545 8.55249 32.9668 8.55406 31.0807C8.55406 30.8227 8.55406 30.5663 8.55406 30.2139C6.86616 30.2139 5.24747 30.14 3.63822 30.2297C0.518827 30.4027 -0.0584887 29.0908 0.00443398 26.5927C0.0862335 23.3192 0.0185916 20.0425 0.02803 16.7658C0.0343223 14.7994 0.890071 13.9626 2.87214 13.9578C4.72678 13.9531 6.58143 13.9563 8.55406 13.9563ZM36.4084 12.4131C36.023 12.4131 35.7367 12.4131 35.4488 12.4131C32.5905 12.4131 29.7338 12.4162 26.8756 12.4115C25.8059 12.4099 25.6045 12.2054 25.603 11.12C25.5982 8.2366 25.6014 5.35316 25.6014 2.46815C25.6014 2.18972 25.6014 1.91129 25.6014 1.56679C25.2695 1.56679 25.0382 1.56679 24.807 1.56679C20.5865 1.56679 16.3659 1.56521 12.1454 1.56836C10.6038 1.56836 10.102 2.05916 10.0988 3.58189C10.0941 6.75477 10.1193 9.92607 10.0799 13.0974C10.0705 13.8037 10.2797 13.9767 10.964 13.9704C14.8699 13.939 18.7759 13.9547 22.6818 13.9563C24.7708 13.9578 25.6014 14.779 25.6014 16.8428C25.603 20.3823 25.6045 23.9217 25.5998 27.4611C25.5967 29.3173 24.7063 30.2108 22.8532 30.2124C18.8954 30.2155 14.936 30.2139 10.9782 30.2124C10.7029 30.2124 10.4292 30.2124 10.0941 30.2124C10.0941 32.4257 10.0909 34.5194 10.0957 36.6132C10.0988 38.2413 10.5802 38.7211 12.2083 38.7211C19.575 38.7211 26.9417 38.7211 34.3083 38.7211C35.9758 38.7211 36.4446 38.246 36.4446 36.5581C36.4446 28.7982 36.4446 21.0382 36.443 13.2783C36.4461 13.0234 36.4241 12.767 36.4084 12.4131ZM12.8139 15.501C9.48689 15.501 6.15985 15.4995 2.83281 15.5026C1.79616 15.5042 1.57908 15.715 1.5775 16.7406C1.57278 20.3036 1.57278 23.8666 1.57908 27.4296C1.58065 28.4474 1.7993 28.6534 2.8391 28.6534C9.49318 28.655 16.1473 28.655 22.8029 28.6534C23.8521 28.6534 24.0456 28.46 24.0456 27.4233C24.0472 23.887 24.0472 20.3492 24.0441 16.813C24.0425 15.663 23.8868 15.5042 22.718 15.5026C19.4161 15.4979 16.1142 15.501 12.8139 15.501ZM27.2185 2.18343C27.2185 5.18012 27.2185 7.99277 27.2185 10.7944C29.9808 10.7944 32.6802 10.7944 35.507 10.7944C32.7164 7.89524 30.0201 5.09361 27.2185 2.18343Z" fill="black"/>
<path d="M12.8151 15.501C16.1154 15.501 19.4172 15.4979 22.7175 15.5026C23.8863 15.5042 24.0436 15.6631 24.0436 16.813C24.0468 20.3492 24.0468 23.8871 24.0452 27.4233C24.0452 28.46 23.8517 28.6519 22.8025 28.6534C16.1484 28.655 9.49432 28.655 2.83867 28.6534C1.7973 28.6534 1.58021 28.4458 1.57864 27.4296C1.57392 23.8666 1.57235 20.3036 1.57707 16.7406C1.57864 15.715 1.79572 15.5042 2.83238 15.5026C6.15942 15.4995 9.48803 15.501 12.8151 15.501ZM10.8361 25.5655C11.6164 25.5655 12.296 25.5718 12.9755 25.5624C13.3153 25.5577 13.6567 25.5451 13.9949 25.5073C15.3603 25.3547 16.2145 24.3543 16.3293 22.7906C16.4787 20.7519 15.7677 19.3786 14.3834 19.031C14.3582 19.0247 14.3315 19.0184 14.3063 19.0168C13.1659 18.9649 12.0254 18.913 10.8361 18.858C10.8361 21.1499 10.8361 23.3082 10.8361 25.5655ZM4.61781 18.9885C4.61781 21.1531 4.61781 23.3082 4.61781 25.5089C5.06456 25.5089 5.46412 25.5089 5.94391 25.5089C5.94391 24.6799 5.94391 23.9059 5.94391 23.1131C6.67224 23.0659 7.32506 23.0502 7.97002 22.9747C9.00982 22.8551 9.65949 22.078 9.68466 20.9769C9.70826 19.9229 9.10577 19.0923 8.07699 19.009C6.94595 18.9177 5.79918 18.9885 4.61781 18.9885ZM17.4949 18.946C17.4949 19.2512 17.4949 19.5312 17.4949 19.8097C17.4949 21.378 17.4949 22.9464 17.4949 24.5163C17.4949 25.6788 17.5343 25.7071 18.8745 25.4585C18.8745 24.5839 18.8745 23.6857 18.8745 22.7214C19.8325 22.7214 20.6867 22.7214 21.5818 22.7214C21.5818 22.3281 21.5818 22.0072 21.5818 21.5919C20.6568 21.5919 19.7838 21.5919 18.8918 21.5919C18.8918 21.0382 18.8918 20.5789 18.8918 20.0126C19.9584 20.0126 20.9872 20.0126 22.0081 20.0126C22.0081 19.5973 22.0081 19.2937 22.0081 18.9476C20.5089 18.946 19.057 18.946 17.4949 18.946Z" fill="#E95A0C"/>
<path d="M10.8359 25.5654C10.8359 23.308 10.8359 21.1498 10.8359 18.8594C12.0252 18.9129 13.1657 18.9648 14.3061 19.0183C14.3313 19.0198 14.358 19.0261 14.3832 19.0324C15.7675 19.3801 16.477 20.7518 16.3291 22.792C16.2143 24.3557 15.3601 25.3561 13.9947 25.5087C13.6564 25.5465 13.3151 25.5606 12.9753 25.5638C12.2957 25.5717 11.6162 25.5654 10.8359 25.5654ZM12.1778 20.0502C12.1778 21.5808 12.1778 22.9792 12.1778 24.4752C13.076 24.2802 14.1472 24.8307 14.6538 23.7925C15.1493 22.7779 15.2028 21.6091 14.5735 20.6275C14.0245 19.7749 13.0461 20.0738 12.1778 20.0502Z" fill="white"/>
<path d="M4.61719 18.9881C5.79856 18.9881 6.94376 18.9173 8.07636 19.0085C9.10515 19.0919 9.70764 19.9225 9.68404 20.9765C9.65887 22.0776 9.00919 22.8547 7.9694 22.9742C7.32444 23.0482 6.67161 23.0639 5.94328 23.1127C5.94328 23.9055 5.94328 24.6795 5.94328 25.5085C5.46192 25.5085 5.06237 25.5085 4.61719 25.5085C4.61719 23.3077 4.61719 21.1526 4.61719 18.9881ZM5.97946 21.8574C6.53161 21.8574 7.07747 21.9643 7.54467 21.8196C7.85142 21.7252 8.21008 21.2816 8.23996 20.9639C8.26513 20.7059 7.88445 20.2513 7.59658 20.1585C7.10264 19.9996 6.54105 20.0578 5.97946 20.0216C5.97946 20.7012 5.97946 21.2643 5.97946 21.8574Z" fill="white"/>
<path d="M17.4938 18.9463C19.0558 18.9463 20.5078 18.9463 22.0053 18.9463C22.0053 19.2924 22.0053 19.596 22.0053 20.0113C20.9844 20.0113 19.9556 20.0113 18.8891 20.0113C18.8891 20.5791 18.8891 21.0369 18.8891 21.5906C19.781 21.5906 20.6541 21.5906 21.579 21.5906C21.579 22.0075 21.579 22.3284 21.579 22.7201C20.6839 22.7201 19.8298 22.7201 18.8718 22.7201C18.8718 23.6828 18.8718 24.581 18.8718 25.4572C17.5315 25.7073 17.4922 25.6774 17.4922 24.5149C17.4922 22.9466 17.4922 21.3783 17.4922 19.8083C17.4938 19.5315 17.4938 19.2515 17.4938 18.9463Z" fill="white"/>
<path d="M12.1777 20.0503C13.0461 20.0723 14.0245 19.775 14.5735 20.6292C15.2043 21.6092 15.1508 22.7796 14.6537 23.7942C14.1456 24.8309 13.076 24.2803 12.1777 24.4769C12.1777 22.9809 12.1777 21.5809 12.1777 20.0503Z" fill="#E95A0C"/>
<path d="M5.97852 21.8576C5.97852 21.2646 5.97852 20.7014 5.97852 20.0234C6.5401 20.058 7.10169 20.0014 7.59563 20.1603C7.8835 20.2531 8.26261 20.7077 8.23901 20.9657C8.20913 21.2819 7.85047 21.7255 7.54372 21.8215C7.07652 21.9646 6.53066 21.8576 5.97852 21.8576Z" fill="#E95A0C"/>
</svg>
