<svg width="15" height="15" viewBox="0 0 15 15" fill="none" xmlns="http://www.w3.org/2000/svg">
<path d="M2.73449 0.00114466C3.32993 0.00114466 3.92596 -0.0011996 4.5214 0.00173072C5.03479 0.00466104 5.38115 0.269562 5.46203 0.780023C5.64254 1.92578 5.80429 3.07446 5.95901 4.22373C5.99887 4.52087 5.85938 4.77229 5.64781 4.9821C5.21823 5.40875 4.79861 5.84537 4.35965 6.26206C4.14925 6.46191 4.14397 6.63363 4.29752 6.87274C5.29793 8.4346 6.5779 9.71163 8.14093 10.7109C8.37125 10.858 8.53945 10.8468 8.72992 10.6487C9.14251 10.2192 9.57151 9.8054 9.98937 9.38109C10.2625 9.10388 10.5707 9.00074 10.9681 9.06344C11.9884 9.2252 13.0129 9.35941 14.0367 9.49713C14.7101 9.58797 14.9996 9.9062 14.9996 10.5819C15.0002 11.7148 15.0002 12.8471 14.9996 13.9799C14.999 14.6656 14.6298 15.0384 13.9424 14.9973C10.6973 14.8022 7.80218 13.6922 5.30555 11.6052C2.52527 9.28439 0.827441 6.32008 0.191562 2.75564C0.0872429 2.17192 0.0374275 1.57531 0.00226365 0.982801C-0.0334862 0.390877 0.357418 0.00583316 0.947584 0.00173072C1.54302 -0.00178566 2.13846 0.00114466 2.73449 0.00114466Z" fill="#E95A0C"/>
</svg>
