<svg width="19" height="19" viewBox="0 0 19 19" fill="none" xmlns="http://www.w3.org/2000/svg">
<path d="M9.49215 18.9982C4.32279 19.0252 0.0255299 14.7598 0.000118369 9.57426C-0.0258339 4.29081 4.21898 0.0157197 9.50567 4.0215e-05C14.6994 -0.0150986 18.9723 4.24594 18.9999 9.46828C19.0274 14.7133 14.781 18.9695 9.49215 18.9982ZM8.64222 6.90874C8.64167 6.90874 8.64059 6.90874 8.64005 6.90874C8.64005 7.75165 8.64222 8.59456 8.63843 9.43747C8.63735 9.68455 8.69358 9.90893 8.8693 10.0857C9.7441 10.9654 10.6195 11.8445 11.5013 12.7177C11.7354 12.9497 12.0311 13.0075 12.3453 12.9107C12.9779 12.7156 13.1574 11.9473 12.6789 11.4612C11.9598 10.7313 11.2331 10.0084 10.5043 9.28716C10.4005 9.18443 10.3561 9.08224 10.3567 8.93464C10.3621 7.44455 10.361 5.95446 10.3588 4.46383C10.3588 4.33677 10.3578 4.20484 10.3253 4.08373C10.2123 3.66525 9.82358 3.41871 9.38023 3.46845C8.97797 3.51387 8.65033 3.85881 8.64546 4.27946C8.63573 5.15535 8.64222 6.03231 8.64222 6.90874Z" fill="#E95A0C"/>
</svg>
